<svg xmlns="http://www.w3.org/2000/svg" version="1.1" xmlns:xlink="http://www.w3.org/1999/xlink" xmlns:svgjs="http://svgjs.dev/svgjs" width="1500" height="265" viewBox="0 0 1500 265"><g transform="matrix(1,0,0,1,-0.9090909090911055,0.9380052323296297)"><svg viewBox="0 0 396 70" data-background-color="#000000" preserveAspectRatio="xMidYMid meet" height="265" width="1500" xmlns="http://www.w3.org/2000/svg" xmlns:xlink="http://www.w3.org/1999/xlink"><g id="tight-bounds" transform="matrix(1,0,0,1,0.24000000000003752,-0.2477749670304661)"><svg viewBox="0 0 395.5199999999999 70.49554993406092" height="70.49554993406092" width="395.5199999999999"><g><svg viewBox="0 0 499.8260837139848 89.08655603460086" height="70.49554993406092" width="395.5199999999999"><g transform="matrix(1,0,0,1,0,12.312251955577977)"><svg viewBox="0 0 395.52 64.4620521234449" height="64.4620521234449" width="395.52"><g id="textblocktransform"><svg viewBox="0 0 395.52 64.4620521234449" height="64.4620521234449" width="395.52" id="textblock"><g><svg viewBox="0 0 395.52 64.4620521234449" height="64.4620521234449" width="395.52"><g transform="matrix(1,0,0,1,0,0)"><svg width="395.52" viewBox="-0.73 -37.7 247.23999999999998 40.30666666666667" height="64.4620521234449" data-palette-color="url(#ba9abd96-11af-4883-b1e3-4eb5a9ecdcff)"></svg></g></svg></g></svg></g></svg></g><g transform="matrix(1,0,0,1,410.73794341709436,0)"><svg viewBox="0 0 89.08814029689047 89.08655603460086" height="89.08655603460086" width="89.08814029689047"><g><svg xmlns="http://www.w3.org/2000/svg" xmlns:xlink="http://www.w3.org/1999/xlink" version="1.1" x="0" y="0" viewBox="10.22832525372998 11.525152021935746 66.9510966778763 66.94990608059408" enable-background="new 0 0 90 90" xml:space="preserve" height="89.08655603460086" width="89.08814029689047" class="icon-icon-0" data-fill-palette-color="accent" id="icon-0"></svg></g></svg></g></svg></g><defs></defs><mask id="8065f059-e2ac-4166-a9ee-479231166f16"><g id="SvgjsG1815"><svg viewBox="0 0 395.5199999999999 70.49554993406092" height="70.49554993406092" width="395.5199999999999"><g><svg viewBox="0 0 499.8260837139848 89.08655603460086" height="70.49554993406092" width="395.5199999999999"><g transform="matrix(1,0,0,1,0,12.312251955577977)"><svg viewBox="0 0 395.52 64.4620521234449" height="64.4620521234449" width="395.52"><g id="SvgjsG1814"><svg viewBox="0 0 395.52 64.4620521234449" height="64.4620521234449" width="395.52" id="SvgjsSvg1813"><g><svg viewBox="0 0 395.52 64.4620521234449" height="64.4620521234449" width="395.52"><g transform="matrix(1,0,0,1,0,0)"><svg width="395.52" viewBox="-0.73 -37.7 247.23999999999998 40.30666666666667" height="64.4620521234449" data-palette-color="url(#ba9abd96-11af-4883-b1e3-4eb5a9ecdcff)"><path d="M22.9-34.91L22.9-34.91Q22.8-34.72 22.83-34.52 22.85-34.33 22.85-34.08L22.85-34.08Q22.75-33.5 22.85-33.5 22.95-33.5 22.95-33.4L22.95-33.4 22.61-32.91Q22.61-32.62 22.49-32.37 22.36-32.13 22.41-31.79L22.41-31.79Q22.27-31.54 22.14-31.3 22.02-31.05 21.78-30.81L21.78-30.81 21.14-30.81Q20.61-30.81 20-30.74 19.38-30.66 18.8-30.66L18.8-30.66Q18.7-30.66 18.55-30.69 18.41-30.71 18.26-30.71L18.26-30.71Q18.16-30.71 18.02-30.69 17.87-30.66 17.68-30.66L17.68-30.66Q16.94-30.66 16.24-30.74 15.53-30.81 14.75-30.81L14.75-30.81Q14.55-30.81 14.36-30.81 14.16-30.81 13.92-30.76L13.92-30.76Q13.87-29.93 13.84-29.08 13.82-28.22 13.82-27.34L13.82-27.34Q13.82-27.1 13.77-26.83 13.72-26.56 13.72-26.32L13.72-26.32Q13.67-25.68 13.65-25.1 13.62-24.51 13.62-23.88L13.62-23.88Q13.62-22.51 13.65-21.14 13.67-19.78 13.72-18.36L13.72-18.36Q13.77-17.63 13.82-16.94 13.87-16.26 13.87-15.53L13.87-15.53Q13.87-13.87 13.82-12.23 13.77-10.6 13.77-8.94L13.77-8.94Q13.77-8.4 13.72-7.93 13.67-7.47 13.67-6.93L13.67-6.93Q13.67-5.81 13.72-4.69 13.77-3.56 13.77-2.44L13.77-2.44Q13.77-1.9 13.75-1.37 13.72-0.83 13.72-0.29L13.72-0.29Q13.48 0.1 13.38 0.39 13.28 0.68 12.79 0.68L12.79 0.68Q12.45 0.59 12.48 0.46 12.5 0.34 12.4 0.24L12.4 0.24Q11.96 0.2 11.74 0.32 11.52 0.44 11.23 0.54L11.23 0.54Q11.08 0.49 10.91 0.49 10.74 0.49 10.6 0.49L10.6 0.49Q10.5 0.49 10.4 0.56 10.3 0.63 9.96 0.63L9.96 0.63Q9.67 0.68 9.62 0.54 9.57 0.39 9.33 0.39L9.33 0.39Q9.08 0.54 8.76 0.61 8.45 0.68 8.15 0.68L8.15 0.68Q7.86 0.49 7.89 0.32 7.91 0.15 7.81-0.05L7.81-0.05Q7.76-0.15 7.64-0.32 7.52-0.49 7.42-0.59L7.42-0.59Q7.52-1.27 7.57-1.81 7.62-2.34 7.62-2.98L7.62-2.98Q7.62-4.25 7.52-5.47 7.42-6.69 7.42-7.96L7.42-7.96Q7.42-8.35 7.52-8.79 7.62-9.23 7.62-9.72L7.62-9.72Q7.52-10.11 7.57-10.18 7.62-10.25 7.62-10.35L7.62-10.35Q7.62-10.64 7.59-10.94 7.57-11.23 7.57-11.52L7.57-11.52Q7.57-12.11 7.59-12.7 7.62-13.28 7.62-13.87L7.62-13.87Q7.62-14.11 7.59-14.38 7.57-14.65 7.57-14.89L7.57-14.89Q7.52-15.33 7.54-15.82 7.57-16.31 7.57-16.8L7.57-16.8Q7.57-19.14 7.5-21.44 7.42-23.73 7.42-26.07L7.42-26.07Q7.42-27.25 7.54-28.39 7.67-29.54 7.67-30.71L7.67-30.71Q7.67-30.86 7.57-31.1 7.47-31.35 7.37-31.45L7.37-31.45Q7.13-31.45 6.91-31.47 6.69-31.49 6.45-31.49L6.45-31.49Q5.91-31.49 5.42-31.35L5.42-31.35Q4.49-31.3 3.64-31.23 2.78-31.15 1.9-31.1L1.9-31.1Q1.32-31.15 1.2-31.13 1.07-31.1 0.93-31.1L0.93-31.1Q0.54-31.1 0.34-31.3L0.34-31.3 0.34-31.93Q0.05-32.52 0.1-32.57 0.15-32.62 0.15-32.71L0.15-32.71Q0.15-32.86-0.12-33.03-0.39-33.2-0.39-33.59L-0.39-33.59Q-0.44-33.98-0.59-34.18-0.73-34.38-0.73-34.57L-0.73-34.57Q-0.73-34.91-0.59-35.35L-0.59-35.35Q-0.15-35.6 0.27-35.69 0.68-35.79 1.22-35.94L1.22-35.94Q1.51-36.04 1.76-36.13 2-36.23 2.29-36.28L2.29-36.28Q2.64-36.33 2.98-36.33 3.32-36.33 3.66-36.38L3.66-36.38Q4.39-36.52 5.2-36.62 6.01-36.72 6.74-36.72L6.74-36.72Q7.42-36.72 8.11-36.55 8.79-36.38 9.33-36.38L9.33-36.38Q10.11-36.38 10.82-36.28 11.52-36.18 12.3-36.18L12.3-36.18Q12.4-36.18 12.62-36.11 12.84-36.04 13.13-36.04L13.13-36.04 17.87-36.04Q18.26-35.94 18.43-35.99 18.6-36.04 18.75-36.04L18.75-36.04Q19.14-36.04 19.48-35.99 19.82-35.94 20.21-35.94L20.21-35.94Q20.56-35.94 20.75-35.99L20.75-35.99Q21.14-35.94 21.48-35.77 21.83-35.6 22.27-35.6L22.27-35.6Q22.46-35.45 22.56-35.23 22.66-35.01 22.9-34.91ZM45.46-5.86L45.46-5.86Q44.97-5.81 44.87-5.91L44.87-5.91Q44.68-5.81 44.5-5.71 44.33-5.62 44.14-5.47L44.14-5.47Q43.45-5.22 42.8-4.83 42.14-4.44 41.45-4.1L41.45-4.1Q41.06-3.91 40.7-3.78 40.33-3.66 39.94-3.47L39.94-3.47Q39.35-3.17 38.77-2.86 38.18-2.54 37.55-2.29L37.55-2.29Q37.2-2.2 36.89-2.1 36.57-2 36.23-1.9L36.23-1.9Q35.84-1.76 35.52-1.59 35.2-1.42 34.86-1.27L34.86-1.27Q34.62-1.17 34.35-1.1 34.08-1.03 33.79-0.88L33.79-0.88Q33.54-0.78 33.37-0.63 33.2-0.49 32.96-0.39L32.96-0.39Q32.57-0.24 32.15-0.1 31.74 0.05 31.35 0.24L31.35 0.24Q30.95 0.44 30.78 0.61 30.61 0.78 30.12 0.93L30.12 0.93Q29.64 1.22 29.59 1.25 29.54 1.27 29.44 1.27L29.44 1.27Q29.29 1.37 29.17 1.44 29.05 1.51 28.9 1.61L28.9 1.61Q28.61 1.61 28.32 1.66 28.02 1.71 27.73 1.71L27.73 1.71Q27.39 1.51 27.27 1.32 27.15 1.12 27.15 0.78L27.15 0.78Q26.95 0.54 26.78 0.24 26.61-0.05 26.41-0.29L26.41-0.29Q26.07-0.1 26-0.32 25.93-0.54 25.88-0.81 25.83-1.07 25.78-1.34 25.73-1.61 25.68-1.71L25.68-1.71Q25.44-2.64 25.44-3.08L25.44-3.08Q25.44-3.32 25.53-3.39 25.63-3.47 25.63-3.61L25.63-3.61Q25.68-4.1 25.73-4.74 25.78-5.37 25.78-6.05 25.78-6.74 25.78-7.42 25.78-8.11 25.78-8.64L25.78-8.64Q25.78-10.84 25.73-12.92 25.68-14.99 25.68-17.09L25.68-17.09Q25.68-18.07 25.73-19.04 25.78-20.02 25.78-21L25.78-21Q25.78-23.39 25.85-25.73 25.93-28.08 25.93-30.47L25.93-30.47Q25.93-31.45 25.83-32.45 25.73-33.45 25.68-34.47L25.68-34.47Q25.63-35.01 25.73-35.33 25.83-35.64 25.78-35.99L25.78-35.99Q25.93-36.04 26.32-36.04 26.71-36.04 27.12-36.06 27.54-36.08 27.9-36.11 28.27-36.13 28.37-36.18L28.37-36.18Q28.71-35.94 29.05-35.94L29.05-35.94Q29.39-35.94 29.68-36.23L29.68-36.23Q29.93-36.13 29.95-36.08 29.98-36.04 30.22-36.04L30.22-36.04Q30.66-36.08 30.91-36.11 31.15-36.13 31.35-36.13L31.35-36.13Q31.88-35.74 32-35.18 32.13-34.62 32.18-34.01 32.22-33.4 32.25-32.79 32.27-32.18 32.27-31.79L32.27-31.79Q32.27-31.49 32.32-31.18 32.37-30.86 32.37-30.52L32.37-30.52Q32.37-30.27 32.35-30.03 32.32-29.79 32.32-29.54L32.32-29.54Q32.32-28.13 32.35-26.66 32.37-25.2 32.37-23.78L32.37-23.78Q32.37-21.24 32.3-18.68 32.22-16.11 32.22-13.57L32.22-13.57Q32.22-13.04 32.27-12.5 32.32-11.96 32.32-11.43L32.32-11.43Q32.32-11.13 32.3-10.84 32.27-10.55 32.27-10.25L32.27-10.25Q32.27-8.45 32.42-6.64L32.42-6.64Q32.61-6.69 33.25-6.91 33.88-7.13 34.57-7.4 35.25-7.67 35.84-7.93 36.42-8.2 36.57-8.35L36.57-8.35Q36.77-8.35 37.11-8.5 37.45-8.64 37.84-8.86 38.23-9.08 38.6-9.28 38.96-9.47 39.11-9.62L39.11-9.62Q39.06-10.6 39.06-11.6 39.06-12.6 39.06-13.57L39.06-13.57Q39.06-16.26 39.13-18.95 39.21-21.63 39.21-24.41L39.21-24.41Q39.21-26.12 39.16-27.83 39.11-29.54 39.11-31.25L39.11-31.25Q39.11-31.79 39.13-32.35 39.16-32.91 39.16-33.45L39.16-33.45Q39.16-34.28 39.13-35.08 39.11-35.89 39.21-36.72L39.21-36.72Q39.69-36.96 39.74-36.96L39.74-36.96Q40.04-36.96 40.16-36.96 40.28-36.96 40.38-36.87L40.38-36.87Q40.52-36.82 40.65-36.84 40.77-36.87 40.92-36.87L40.92-36.87Q41.16-36.87 41.4-36.77 41.65-36.67 41.89-36.67L41.89-36.67Q42.28-36.72 42.31-36.57 42.33-36.43 42.48-36.43L42.48-36.43Q42.87-36.57 43.02-36.43L43.02-36.43Q43.16-36.33 43.55-36.16 43.94-35.99 44.38-35.79 44.82-35.6 45.16-35.42 45.51-35.25 45.51-35.11L45.51-35.11Q45.65-34.33 45.6-33.45 45.55-32.57 45.55-31.79L45.55-31.79Q45.55-31.1 45.6-30.42 45.65-29.74 45.65-29.05L45.65-29.05Q45.65-28.66 45.65-28.27 45.65-27.88 45.7-27.54L45.7-27.54Q45.75-27.29 45.75-27.12 45.75-26.95 45.75-26.76L45.75-26.76Q45.75-26.51 45.85-26.12L45.85-26.12Q45.8-25.88 45.8-25.61 45.8-25.34 45.8-25.1L45.8-25.1Q45.8-24.41 45.85-23.68 45.9-22.95 45.9-22.22L45.9-22.22Q45.9-21.73 45.82-21.29 45.75-20.85 45.75-20.41L45.75-20.41 45.8-19.48Q45.8-18.99 45.85-18.51 45.9-18.02 45.9-17.48L45.9-17.48Q45.9-17.24 45.87-16.99 45.85-16.75 45.8-16.5L45.8-16.5Q45.75-16.26 45.75-15.97 45.75-15.67 45.75-15.43L45.75-15.43Q45.75-14.75 45.8-14.06 45.85-13.38 45.85-12.7L45.85-12.7Q45.85-12.26 45.82-11.84 45.8-11.43 45.8-10.99L45.8-10.99Q45.8-10.11 45.87-9.18 45.94-8.25 45.94-7.37L45.94-7.37Q45.94-6.98 45.85-6.54 45.75-6.1 45.46-5.86ZM73.68-4.69L73.68-4.69Q73.63-3.96 73.99-3.59 74.36-3.22 74.6-2.69L74.6-2.69Q74.51-2 74.75-1.61L74.75-1.61Q74.6-1.32 74.46-0.95 74.31-0.59 74.02-0.34L74.02-0.34Q73.24 0 73.09 0.24 72.94 0.49 72.5 0.49L72.5 0.49Q72.26 0.73 71.97 1 71.67 1.27 71.43 1.51L71.43 1.51Q71.19 1.42 71.09 1.27 70.99 1.12 70.8 0.88L70.8 0.88Q70.31 0.73 69.92 0.37 69.53 0 69.23-0.46 68.94-0.93 68.67-1.44 68.4-1.95 68.21-2.39L68.21-2.39Q67.52-3.66 66.82-4.96 66.11-6.25 65.38-7.52L65.38-7.52Q64.99-8.15 64.62-8.81 64.25-9.47 63.86-10.16L63.86-10.16Q63.76-10.25 63.67-10.38 63.57-10.5 63.47-10.64L63.47-10.64Q63.13-11.13 62.96-11.74 62.79-12.35 62.25-12.74L62.25-12.74Q61.32-12.84 60.57-12.48 59.81-12.11 59.22-11.52L59.22-11.52Q59.27-11.18 59.27-10.89 59.27-10.6 59.27-10.3L59.27-10.3Q59.27-9.18 59.17-8.15 59.08-7.13 59.08-6.01L59.08-6.01Q59.08-5.52 59.13-5 59.17-4.49 59.27-4L59.27-4Q59.13-3.47 59.13-2.83L59.13-2.83Q59.13-2.49 59.2-2.2 59.27-1.9 59.27-1.56L59.27-1.56Q59.27-1.07 58.95-0.9 58.64-0.73 58.74-0.29L58.74-0.29Q58.15-0.05 57.61 0.2 57.08 0.44 56.49 0.54L56.49 0.54Q56.25 0.59 56 0.56 55.76 0.54 55.56 0.63L55.56 0.63Q55.32 0.73 55.17 1 55.02 1.27 54.78 1.27L54.78 1.27Q54.49 1.27 54.44 1.05 54.39 0.83 54.24 0.68L54.24 0.68Q54 0.59 53.85 0.59 53.71 0.59 53.56 0.44L53.56 0.44Q53.61 0 53.36-0.22 53.12-0.44 53.12-1.12L53.12-1.12Q53.12-1.66 53.19-2.15 53.27-2.64 53.27-3.17L53.27-3.17Q53.27-3.61 53.14-3.98 53.02-4.35 52.92-4.79L52.92-4.79Q52.88-4.98 52.92-5.18 52.97-5.37 52.97-5.57L52.97-5.57Q52.97-6.45 52.9-7.35 52.83-8.25 52.83-9.13L52.83-9.13Q52.83-9.47 52.83-9.77 52.83-10.06 52.88-10.35L52.88-10.35Q52.97-10.64 53.05-10.84 53.12-11.04 53.12-11.33L53.12-11.33Q53.12-12.26 52.92-13.16 52.73-14.06 52.73-14.94L52.73-14.94Q52.73-15.43 52.75-15.94 52.78-16.46 52.78-16.94L52.78-16.94Q52.78-18.36 52.73-19.73 52.68-21.09 52.68-22.46L52.68-22.46Q52.68-23.44 52.73-24.39 52.78-25.34 52.78-26.32L52.78-26.32Q52.78-27.54 52.68-28.74 52.58-29.93 52.58-31.2L52.58-31.2Q52.58-31.64 52.53-31.79 52.49-31.93 52.39-31.96 52.29-31.98 52.17-32.01 52.05-32.03 51.95-32.18L51.95-32.18Q51.95-32.47 52.19-32.59 52.44-32.71 52.44-33.4L52.44-33.4Q52.44-33.79 52.36-34.18 52.29-34.57 52.29-34.96L52.29-34.96Q52.29-35.55 52.53-36.13 52.78-36.72 52.97-37.26L52.97-37.26Q53.56-37.3 53.78-37.26 54-37.21 54.24-37.3L54.24-37.3Q54.39-36.77 54.88-36.74 55.37-36.72 55.76-36.62L55.76-36.62Q56.2-36.57 56.61-36.4 57.03-36.23 57.42-36.23L57.42-36.23Q57.51-35.94 57.83-35.82 58.15-35.69 58.49-35.6L58.49-35.6Q58.88-35.64 59.1-35.94 59.32-36.23 59.71-36.23L59.71-36.23Q60-36.23 60.4-35.82 60.79-35.4 60.98-35.16L60.98-35.16Q61.18-35.01 61.71-34.52 62.25-34.03 62.89-33.52 63.52-33.01 64.06-32.54 64.59-32.08 64.74-32.03L64.74-32.03Q66.74-30.03 68.48-28.39 70.21-26.76 72.26-25.44L72.26-25.44Q72.31-25.29 72.38-25.2 72.46-25.1 72.55-24.95L72.55-24.95Q72.55-24.56 72.41-24.37 72.26-24.17 72.26-23.88L72.26-23.88Q72.26-23.73 72.33-23.58 72.41-23.44 72.41-23.29L72.41-23.29Q72.46-23.1 72.43-22.92 72.41-22.75 72.41-22.56L72.41-22.56Q72.41-22.07 72.72-21.68 73.04-21.29 73.04-20.8L73.04-20.8Q72.94-20.36 72.65-20.26 72.36-20.17 72.16-20.02L72.16-20.02Q72.07-19.92 71.99-19.78 71.92-19.63 71.82-19.53L71.82-19.53Q70.75-19.04 70.26-18.63 69.77-18.21 69.23-17.82L69.23-17.82Q69.09-17.72 68.75-17.5 68.4-17.29 68.06-17.07 67.72-16.85 67.45-16.6 67.18-16.36 67.18-16.21L67.18-16.21Q67.18-15.87 67.6-15.26 68.01-14.65 68.21-14.31L68.21-14.31Q68.75-13.43 69.18-12.57 69.62-11.72 70.16-10.89L70.16-10.89Q71.14-9.38 71.99-7.81 72.85-6.25 73.68-4.69ZM65.72-22.85L65.72-22.85Q64.59-24.27 63.3-25.42 62.01-26.56 60.83-27.83L60.83-27.83 60.3-27.93Q60-28.42 59.64-28.78 59.27-29.15 58.88-29.54L58.88-29.54Q58.93-29 58.93-28.52 58.93-28.03 58.93-27.49L58.93-27.49Q58.93-25.93 58.86-24.44 58.78-22.95 58.78-21.44L58.78-21.44Q58.78-19.92 58.93-18.55L58.93-18.55Q59.96-18.55 60.79-19.14L60.79-19.14Q61.13-19.38 61.42-19.65 61.71-19.92 62.06-20.17L62.06-20.17Q62.45-20.41 62.96-20.75 63.47-21.09 63.98-21.44 64.5-21.78 64.96-22.14 65.42-22.51 65.72-22.85ZM93.5-36.43L93.5-36.43Q94.28-36.52 94.69-36.3 95.11-36.08 95.55-36.04L95.55-36.04Q95.79-35.99 96.06-36.01 96.33-36.04 96.62-36.04L96.62-36.04Q97.26-36.04 97.62-35.89 97.99-35.74 98.38-35.25L98.38-35.25Q98.48-35.16 98.65-34.99 98.82-34.81 98.82-34.67L98.82-34.67Q98.82-34.28 98.63-33.98 98.43-33.69 98.43-33.15L98.43-33.15Q98.43-32.32 98.63-31.52 98.82-30.71 98.87-29.88L98.87-29.88Q99.11-26.86 99.14-23.8 99.16-20.75 99.16-17.77L99.16-17.77Q99.16-17.38 99.14-17.07 99.11-16.75 98.92-16.5L98.92-16.5 98.92-15.87Q98.87-14.6 98.97-13.31 99.06-12.01 99.06-10.74L99.06-10.74Q99.06-9.62 98.94-8.5 98.82-7.37 98.82-6.2L98.82-6.2Q98.82-5.13 98.97-4.1 99.11-3.08 99.11-2L99.11-2Q98.87-1.56 98.82-1.32 98.77-1.07 98.63-0.88L98.63-0.88Q98.48-0.78 98.31-0.83 98.14-0.88 98.04-0.73L98.04-0.73Q97.8-0.44 97.7-0.05 97.6 0.34 97.21 0.59L97.21 0.59Q97.11 1.27 96.7 1.64 96.28 2 96.09 2.59L96.09 2.59Q95.5 2.64 95.28 2.54 95.06 2.44 94.82 2.34L94.82 2.34Q94.77 1.51 94.84 1.15 94.91 0.78 94.91 0.39L94.91 0.39Q94.91-0.1 94.67-0.34 94.43-0.59 94.33-0.98L94.33-0.98Q93.79-1.32 93.6-1.44 93.4-1.56 93.25-1.76L93.25-1.76Q92.96-2.15 92.77-2.59 92.57-3.03 92.33-3.42L92.33-3.42Q91.64-4.54 90.93-5.71 90.23-6.88 89.4-8.01L89.4-8.01Q89.25-8.25 89.06-8.45 88.86-8.64 88.71-8.89L88.71-8.89Q87.88-10.21 87.15-11.57 86.42-12.94 85.44-14.16L85.44-14.16Q85.05-14.65 84.86-15.26 84.66-15.87 84.27-16.31L84.27-16.31Q84.22-16.06 84.22-15.77 84.22-15.48 84.22-15.23L84.22-15.23Q84.22-13.57 84.29-11.94 84.37-10.3 84.37-8.64L84.37-8.64Q84.37-8.3 84.29-8.03 84.22-7.76 84.22-7.42L84.22-7.42Q84.22-6.93 84.27-6.49 84.32-6.05 84.32-5.62L84.32-5.62Q84.32-5.08 84.29-4.59 84.27-4.1 84.22-3.61L84.22-3.61Q84.12-2.98 83.98-2.42 83.83-1.86 83.83-1.27L83.83-1.27Q83.83-0.93 83.9-0.63 83.98-0.34 83.98-0.1L83.98-0.1Q83.64 0.44 83.12 0.44 82.61 0.44 82.27 0.83L82.27 0.83Q81.97 0.78 81.8 0.88 81.63 0.98 81.49 0.98L81.49 0.98Q81.29 0.98 81.17 0.93 81.05 0.88 80.9 0.88L80.9 0.88Q80.66 0.88 80.41 1.12 80.17 1.37 79.92 1.37L79.92 1.37Q79.78 1.37 79.41 1.17 79.05 0.98 78.63 0.71 78.22 0.44 77.87 0.17 77.53-0.1 77.53-0.24L77.53-0.24Q77.48-0.49 77.48-0.93L77.48-0.93Q77.48-1.51 77.56-2.08 77.63-2.64 77.73-3.22L77.73-3.22Q77.87-4.88 77.87-6.52 77.87-8.15 77.87-9.81L77.87-9.81Q77.87-10.5 77.9-11.18 77.92-11.87 77.92-12.55L77.92-12.55Q77.92-14.16 77.8-15.8 77.68-17.43 77.68-19.04L77.68-19.04Q77.68-20.17 77.78-21.26 77.87-22.36 77.87-23.44L77.87-23.44Q77.87-24.27 77.82-25.05 77.78-25.83 77.78-26.66L77.78-26.66Q77.73-27.2 77.78-27.81 77.82-28.42 77.82-28.96L77.82-28.96Q77.82-29.59 77.65-30.15 77.48-30.71 77.48-31.2L77.48-31.2Q77.48-31.49 77.6-31.76 77.73-32.03 77.73-32.32L77.73-32.32Q77.73-32.71 77.6-33.11 77.48-33.5 77.48-33.89L77.48-33.89Q77.48-34.28 77.58-34.62 77.68-34.96 77.68-35.35L77.68-35.35Q78.36-35.69 78.9-35.69L78.9-35.69Q79.44-35.69 79.68-35.3L79.68-35.3Q79.68-34.42 79.78-33.96 79.88-33.5 79.92-33.01L79.92-33.01Q79.92-32.71 79.9-32.32 79.88-31.93 79.92-31.57 79.97-31.2 80.14-30.96 80.31-30.71 80.75-30.71L80.75-30.71Q80.85-30.47 81-30.27 81.14-30.08 81.19-29.79L81.19-29.79Q81.49-29.98 81.54-30.32 81.58-30.66 81.54-30.96L81.54-30.96Q81.78-30.86 81.97-30.88 82.17-30.91 82.37-30.81L82.37-30.81Q82.46-30.13 82.61-29.61 82.76-29.1 82.71-28.42L82.71-28.42Q83.68-27.69 84.39-26.34 85.1-25 85.73-23.93L85.73-23.93Q86.08-23.39 86.54-22.92 87-22.46 87.25-21.83L87.25-21.83Q87.64-21.58 87.88-21.19 88.13-20.8 88.32-20.41L88.32-20.41Q89.3-18.7 90.47-17.09 91.64-15.48 92.91-13.92L92.91-13.92Q92.96-14.26 92.96-14.58 92.96-14.89 92.96-15.23L92.96-15.23 92.91-19.63Q92.91-20.02 92.89-20.36 92.86-20.7 92.81-21.09L92.81-21.09Q92.72-22.36 92.77-23.58 92.81-24.8 92.77-26.07L92.77-26.07Q92.67-27.39 92.64-28.76 92.62-30.13 92.52-31.49L92.52-31.49Q92.47-32.32 92.42-33.15 92.38-33.98 92.38-34.81L92.38-34.81Q92.38-35.84 92.57-36.67L92.57-36.67Q92.67-36.77 92.79-36.84 92.91-36.91 93.11-36.91L93.11-36.91Q93.4-36.91 93.5-36.43ZM114.88-37.01L114.98-36.96Q115.22-36.08 115.47-35.23 115.71-34.38 116.05-33.54L116.05-33.54Q116.79-33.45 116.96-33.4 117.13-33.35 117.37-33.25L117.37-33.25Q117.91-31.98 118.03-30.54 118.15-29.1 118.4-27.73L118.4-27.73Q119.33-26.51 119.74-25.12 120.16-23.73 120.69-22.31L120.69-22.31Q120.84-21.83 120.89-21.7 120.94-21.58 120.94-21.48L120.94-21.48Q121.23-20.65 121.52-19.78 121.82-18.9 122.16-18.07L122.16-18.07Q122.3-17.63 122.48-17.21 122.65-16.8 122.79-16.41L122.79-16.41Q122.94-15.92 123.06-15.41 123.18-14.89 123.33-14.4L123.33-14.4Q123.67-13.43 124.06-12.45 124.45-11.47 124.84-10.5L124.84-10.5Q124.99-10.16 125.41-8.98 125.82-7.81 126.26-6.52 126.7-5.22 127.07-4.13 127.43-3.03 127.43-2.78L127.43-2.78Q127.43-2.39 127.5-1.98 127.58-1.56 127.63-1.12L127.63-1.12Q127.43-0.63 127.14-0.59 126.85-0.54 126.6-0.63L126.6-0.63Q126.36-0.54 126.14-0.44 125.92-0.34 125.72-0.24L125.72-0.24Q125.58-0.2 125.48-0.1 125.38 0 125.23 0L125.23 0Q124.65 0 124.48 0.12 124.31 0.24 123.96 0.24L123.96 0.24Q123.53 0.1 123.4 0.22 123.28 0.34 123.18 0.39L123.18 0.39Q122.99 0.49 122.74 0.49 122.5 0.49 122.26 0.54L122.26 0.54Q122.16 0.34 122.08 0.15 122.01-0.05 121.87-0.29L121.87-0.29Q121.33-1.07 121.11-1.81 120.89-2.54 120.74-2.98L120.74-2.98Q120.5-3.52 120.33-4.05 120.16-4.59 119.91-5.13L119.91-5.13Q119.62-5.03 119.37-4.91 119.13-4.79 118.98-4.59L118.98-4.59Q118.4-4.59 118.4-4.44 118.4-4.3 118.3-4.15L118.3-4.15Q118.01-4.05 117.84-3.96 117.67-3.86 117.28-3.91L117.28-3.91Q117.03-3.66 116.79-3.49 116.54-3.32 116.15-3.27L116.15-3.27Q115.76-2.88 115.35-2.61 114.93-2.34 114.39-2.49L114.39-2.49Q113.71-2.34 113.03-2.22 112.34-2.1 111.66-2.1L111.66-2.1Q110.88-2.34 110.68-2.54 110.49-2.73 110.1-2.73L110.1-2.73Q110.15-3.42 109.8-3.66L109.8-3.66Q109.8-3.81 109.83-4.13 109.85-4.44 109.95-4.54L109.95-4.54Q110.59-4.83 110.68-5.18 110.78-5.52 111.22-5.62L111.22-5.62Q111.32-5.81 111.44-5.98 111.56-6.15 111.66-6.35L111.66-6.35Q111.9-6.45 112.07-6.49 112.25-6.54 112.34-6.79L112.34-6.79Q112.59-6.79 113.08-7.1 113.56-7.42 113.71-7.62L113.71-7.62Q114.1-7.76 114.2-7.89 114.3-8.01 114.44-8.11L114.44-8.11Q114.93-8.06 115.08-8.2L115.08-8.2Q115.47-8.01 115.96-8.01L115.96-8.01Q116.15-8.01 116.3-8.03 116.45-8.06 116.64-8.06L116.64-8.06Q117.03-8.45 117.64-8.57 118.25-8.69 118.64-9.08L118.64-9.08Q118.5-9.47 118.4-10.03 118.3-10.6 118.06-10.94L118.06-10.94Q117.96-11.57 117.74-12.16 117.52-12.74 117.37-13.28L117.37-13.28Q116.84-15.33 116.1-17.29 115.37-19.24 114.88-21.29L114.88-21.29Q114.78-21.53 114.66-21.8 114.54-22.07 114.44-22.31L114.44-22.31Q114.2-21.73 114.2-21.66 114.2-21.58 114.1-21.48L114.1-21.48Q114.05-21.24 114-21.07 113.95-20.9 113.86-20.65L113.86-20.65Q113.71-20.26 113.59-19.8 113.47-19.34 113.37-18.95L113.37-18.95Q113.12-18.12 112.93-17.21 112.73-16.31 112.49-15.43L112.49-15.43Q112-13.92 111.49-12.43 110.98-10.94 110.49-9.42L110.49-9.42Q110.39-8.74 110.27-8.37 110.15-8.01 110.02-7.64 109.9-7.28 109.83-6.93 109.76-6.59 109.76-6.4L109.76-6.4Q109.07-4.83 108.61-3.22 108.14-1.61 107.46-0.1L107.46-0.1Q107.27 0 107.12 0.15 106.97 0.29 106.78 0.29L106.78 0.29Q106.39 0.29 106.36 0.1 106.34-0.1 106.14-0.1L106.14-0.1Q105.95-0.1 105.8-0.02 105.65 0.05 105.51 0.15L105.51 0.15Q105.26 0.05 104.95 0.02 104.63 0 104.48-0.2L104.48-0.2Q104.14 0.05 103.8 0.05L103.8 0.05Q103.41 0.05 103.02-0.2L103.02-0.2Q102.72-0.1 102.43-0.1L102.43-0.1Q102.28-0.1 102.09-0.15 101.89-0.2 101.8-0.29L101.8-0.29Q101.75-0.49 101.75-0.68 101.75-0.88 101.75-1.12L101.75-1.12Q101.75-1.61 101.65-1.86L101.65-1.86Q102.53-4.35 103.36-6.91 104.19-9.47 105.02-12.11L105.02-12.11Q105.46-13.33 105.87-14.5 106.29-15.67 106.68-16.89L106.68-16.89Q106.87-17.58 107.02-18.19 107.17-18.8 107.41-19.38L107.41-19.38Q107.8-20.65 108.22-21.95 108.63-23.24 108.97-24.51L108.97-24.51Q109.17-24.66 109.22-24.85 109.27-25.05 109.37-25.29L109.37-25.29 109.32-25.93Q109.66-26.42 109.78-26.78 109.9-27.15 109.95-27.54L109.95-27.54Q110.2-28.13 110.39-28.81 110.59-29.49 110.68-30.08L110.68-30.08Q110.78-30.86 110.81-31.86 110.83-32.86 111.07-33.54L111.07-33.54Q111.17-33.74 111.24-33.81 111.32-33.89 111.32-34.13L111.32-34.13Q111.42-34.23 111.54-34.35 111.66-34.47 111.71-34.62L111.71-34.62Q111.95-35.01 111.88-35.3 111.81-35.6 111.81-35.94L111.81-35.94Q112.25-36.18 112.2-36.38 112.15-36.57 112.15-36.77L112.15-36.77Q112.15-37.01 112.47-37.23 112.78-37.45 112.88-37.7L112.88-37.7Q113.17-37.65 113.47-37.62 113.76-37.6 114.05-37.65L114.05-37.65Q114.39-37.01 114.88-37.01L114.88-37.01ZM145.35-0.24L145.35-0.24Q145.06-0.24 144.86-0.12 144.67 0 144.42 0.1L144.42 0.1Q144.03 0.34 144.05 0.46 144.08 0.59 143.93 0.59L143.93 0.59Q143.49 0.59 143.08 0.44 142.66 0.29 142.22 0.29L142.22 0.29Q141.83 0.1 141.49-0.12 141.15-0.34 140.81-0.68L140.81-0.68Q140.37-0.68 140.2-0.61 140.03-0.54 139.78-0.59L139.78-0.59Q139.15-0.83 138.61-1.29 138.07-1.76 137.39-2L137.39-2Q137.19-2.25 136.95-2.37 136.71-2.49 136.46-2.69L136.46-2.69Q136.02-2.88 135.17-3.42 134.31-3.96 133.36-4.57 132.41-5.18 131.58-5.76 130.75-6.35 130.41-6.69L130.41-6.69Q130.21-6.74 129.82-7.01 129.43-7.28 129.06-7.62 128.7-7.96 128.41-8.3 128.11-8.64 128.11-8.89L128.11-8.89Q128.11-9.13 128.36-9.3 128.6-9.47 128.7-9.72L128.7-9.72Q128.75-9.81 128.72-9.99 128.7-10.16 128.75-10.25L128.75-10.25Q128.99-10.64 129.02-10.86 129.04-11.08 129.09-11.28L129.09-11.28Q129.33-11.57 129.53-11.82 129.72-12.06 129.97-12.35L129.97-12.35Q129.92-12.89 130.16-13.13 130.41-13.38 130.7-13.62L130.7-13.62Q130.94-13.62 131.29-13.57 131.63-13.53 131.87-13.43L131.87-13.43Q132.36-13.18 132.36-13.11 132.36-13.04 132.46-12.94L132.46-12.94Q132.7-12.74 132.95-12.6 133.19-12.45 133.43-12.3L133.43-12.3Q133.97-11.91 134.53-11.52 135.09-11.13 135.68-10.74L135.68-10.74Q136.36-10.35 137.32-9.72 138.27-9.08 139.05-8.79L139.05-8.79Q139.15-9.08 139.15-9.57L139.15-9.57Q139.15-9.91 139.12-10.25 139.1-10.6 139.1-10.99L139.1-10.99Q139.1-11.52 139-12.06 138.9-12.6 138.81-13.09L138.81-13.09Q138.56-15.43 138.51-17.68L138.51-17.68Q138.46-18.36 138.42-18.99 138.37-19.63 138.37-20.31L138.37-20.31Q138.37-21.24 138.39-22.17 138.42-23.1 138.42-24.07L138.42-24.07Q138.42-24.9 138.46-25.73 138.51-26.56 138.51-27.39L138.51-27.39Q138.51-28.22 138.54-28.96 138.56-29.69 138.56-30.52L138.56-30.52Q138.56-31.74 138.54-33.2 138.51-34.67 138.66-35.89L138.66-35.89Q138.76-36.38 138.95-36.62L138.95-36.62Q139.83-36.57 140.37-36.55 140.91-36.52 141.59-36.52L141.59-36.52Q141.78-36.52 141.91-36.4 142.03-36.28 142.18-36.28L142.18-36.28Q142.37-36.28 142.49-36.35 142.61-36.43 142.81-36.43L142.81-36.43Q143.15-36.43 143.44-36.13L143.44-36.13Q143.98-36.28 144.27-36.18L144.27-36.18Q144.52-35.94 144.59-35.5 144.67-35.06 144.76-34.67L144.76-34.67Q144.76-34.23 144.79-33.98 144.81-33.74 144.81-33.5L144.81-33.5Q144.81-32.96 144.76-32.42 144.71-31.88 144.71-31.35L144.71-31.35Q144.71-30.71 144.79-30.08 144.86-29.44 144.86-28.81L144.86-28.81Q144.86-28.13 144.81-27.54 144.76-26.95 144.76-26.32L144.76-26.32Q144.76-25.83 144.79-25.39 144.81-24.95 144.81-24.51L144.81-24.51Q144.81-23.49 144.79-22.46 144.76-21.44 144.76-20.41L144.76-20.41Q144.76-20.17 144.79-19.82 144.81-19.48 144.76-19.19L144.76-19.19Q144.76-18.95 144.57-18.65L144.57-18.65Q144.67-17.04 144.74-15.43 144.81-13.82 144.91-12.21L144.91-12.21Q144.91-11.82 144.96-11.35 145.01-10.89 145.06-10.45L145.06-10.45Q145.15-9.91 145.15-9.38 145.15-8.84 145.2-8.3L145.2-8.3Q145.25-7.62 145.32-6.96 145.4-6.3 145.45-5.62L145.45-5.62Q145.5-5.08 145.59-4.54 145.69-4 145.69-3.47L145.69-3.47Q145.69-2.78 145.64-1.83 145.59-0.88 145.35-0.24ZM172.45 0.15L172.1 0.1Q171.86 0.68 171.08 1.07L171.08 1.07Q170.74 0.88 170.47 0.61 170.2 0.34 169.81 0.2L169.81 0.2Q169.52-0.39 169.37-0.51 169.22-0.63 169.03-0.68L169.03-0.68Q168.74-0.93 168.54-1.27 168.34-1.61 168.1-1.86L168.1-1.86Q168-1.9 167.73-2.17 167.47-2.44 167.17-2.73 166.88-3.03 166.64-3.3 166.39-3.56 166.34-3.56L166.34-3.56Q165.9-3.86 165.56-4.2L165.56-4.2Q165.46-4.35 165.34-4.52 165.22-4.69 165.12-4.79L165.12-4.79Q164.73-4.93 164.49-5.2 164.24-5.47 164.02-5.81 163.8-6.15 163.53-6.42 163.27-6.69 162.92-6.84L162.92-6.84Q162.58-7.32 162.09-7.64 161.61-7.96 161.26-8.4L161.26-8.4Q160.97-8.74 160.63-9.06 160.29-9.38 159.9-9.67L159.9-9.67Q159.7-9.96 159.26-10.52 158.82-11.08 158.48-11.13L158.48-11.13Q158.43-10.01 158.41-8.89 158.38-7.76 158.33-6.64L158.33-6.64Q158.33-6.05 158.36-5.42 158.38-4.79 158.33-4.15L158.33-4.15Q158.29-3.91 158.21-3.64 158.14-3.37 158.14-3.08L158.14-3.08Q158.14-2.49 158.07-2.32 157.99-2.15 157.94-2L157.94-2Q157.8-1.51 157.68-0.81 157.55-0.1 157.16 0.29L157.16 0.29Q156.63 0.34 156.33 0.2L156.33 0.2Q156.24 0.29 156.14 0.39 156.04 0.49 155.84 0.49L155.84 0.49Q155.75 0.39 155.53 0.32 155.31 0.24 155.21 0.24L155.21 0.24Q154.97 0.24 154.7 0.34 154.43 0.44 154.18 0.44L154.18 0.44Q153.94 0.44 153.77 0.32 153.6 0.2 153.35 0.2L153.35 0.2Q153.21 0.2 153.01 0.34 152.82 0.49 152.62 0.49L152.62 0.49Q152.38 0.49 152.21 0.42 152.04 0.34 151.84 0.29L151.84 0.29Q151.84 0.15 151.86 0 151.89-0.15 151.84-0.29L151.84-0.29 151.65-1.51Q151.69-1.86 151.77-2.2 151.84-2.54 151.89-2.83L151.89-2.83Q151.94-3.61 151.96-4.32 151.99-5.03 151.99-5.76L151.99-5.76Q151.99-7.03 151.96-8.25 151.94-9.47 151.99-10.74L151.99-10.74Q152.04-11.18 152.11-11.65 152.18-12.11 152.18-12.55L152.18-12.55Q152.18-13.82 152.33-15.04 152.48-16.26 152.57-17.53L152.57-17.53Q152.67-18.51 152.67-19.43 152.67-20.36 152.67-21.29L152.67-21.29Q152.67-23.1 152.62-24.88 152.57-26.66 152.57-28.42L152.57-28.42Q152.57-29 152.62-30 152.67-31.01 152.52-31.54L152.52-31.54Q152.57-32.96 152.52-34.33L152.52-34.33Q152.72-34.42 152.74-34.62 152.77-34.81 152.77-35.01L152.77-35.01 152.77-35.69Q153.21-36.18 153.5-36.18L153.5-36.18Q153.74-36.18 153.99-36.13 154.23-36.08 154.48-35.94L154.48-35.94Q155.11-36.08 155.31-35.99 155.5-35.89 155.75-35.79L155.75-35.79Q156.14-35.84 156.28-36.13L156.28-36.13Q156.82-36.04 156.82-35.89 156.82-35.74 156.92-35.6L156.92-35.6Q157.41-35.55 157.58-35.67 157.75-35.79 157.99-35.84L157.99-35.84Q158.43-35.74 158.58-35.6L158.58-35.6Q158.58-35.3 158.73-34.94 158.87-34.57 158.87-33.98L158.87-33.98Q158.87-33.54 158.82-33.13 158.77-32.71 158.77-32.32L158.77-32.32Q158.77-31.64 158.82-31.01 158.87-30.37 158.87-29.69L158.87-29.69Q158.87-29.49 158.85-29.32 158.82-29.15 158.82-28.96L158.82-28.96Q158.82-27.1 158.92-25.2 159.02-23.29 159.02-21.39L159.02-21.39Q159.02-21.29 158.97-21.12 158.92-20.95 159.02-20.85L159.02-20.85Q159.85-21.73 160.43-22.73 161.02-23.73 161.7-24.71L161.7-24.71Q162.29-25.44 162.9-26.46 163.51-27.49 163.95-28.32L163.95-28.32Q164.15-28.61 164.29-28.91 164.44-29.2 164.63-29.49L164.63-29.49Q164.73-29.74 164.9-29.96 165.07-30.18 165.17-30.47L165.17-30.47Q165.41-30.86 165.61-31.23 165.81-31.59 166.05-31.98L166.05-31.98Q166.29-32.37 166.56-32.69 166.83-33.01 167.07-33.35L167.07-33.35Q167.47-33.98 167.9-34.64 168.34-35.3 168.69-35.99L168.69-35.99Q169.17-36.23 169.57-36.55 169.96-36.87 170.4-37.11L170.4-37.11Q170.88-36.47 171.1-36.23 171.32-35.99 171.71-35.94L171.71-35.94Q171.81-35.79 171.84-35.6 171.86-35.4 172.01-35.3L172.01-35.3Q172.59-35.25 172.69-35.3L172.69-35.3Q172.84-35.06 173.11-34.94 173.37-34.81 173.62-34.72L173.62-34.72Q173.62-34.57 173.62-34.4 173.62-34.23 173.67-34.13L173.67-34.13Q174.25-33.89 174.25-33.2L174.25-33.2Q173.32-31.54 172.23-30.05 171.13-28.56 170.3-26.86L170.3-26.86Q170.05-26.32 169.74-25.83 169.42-25.34 169.22-24.8L169.22-24.8Q168.88-24.46 168.69-24.1 168.49-23.73 168.2-23.39L168.2-23.39Q168-23.14 167.81-22.88 167.61-22.61 167.42-22.36L167.42-22.36Q167.03-21.83 166.71-21.26 166.39-20.7 165.95-20.17L165.95-20.17Q165.66-19.68 165.27-19.19L165.27-19.19Q164.88-18.65 164.61-17.99 164.34-17.33 163.95-16.8L163.95-16.8Q163.56-16.21 163.53-15.94 163.51-15.67 163.27-15.04L163.27-15.04Q163.61-14.5 164.05-14.06 164.49-13.62 164.98-13.23L164.98-13.23Q165.37-12.7 165.88-12.28 166.39-11.87 166.93-11.38L166.93-11.38Q167.12-11.18 167.27-11.01 167.42-10.84 167.61-10.69L167.61-10.69Q168.15-10.11 168.91-9.57 169.66-9.03 170.35-8.54L170.35-8.54Q170.88-8.06 171.69-7.35 172.49-6.64 173.37-5.83 174.25-5.03 174.94-4.32 175.62-3.61 175.62-3.42L175.62-3.42Q175.38-2.69 175.06-2.51 174.74-2.34 174.59-2L174.59-2Q174.3-1.9 174.3-1.81 174.3-1.71 174.15-1.46L174.15-1.46Q173.81-1.22 173.57-0.9 173.32-0.59 173.08-0.29L173.08-0.29Q172.89-0.2 172.71-0.12 172.54-0.05 172.45 0.15L172.45 0.15ZM198.47-34.57L198.47-34.57Q197.93-33.59 197.25-32.28 196.56-30.96 196.17-29.98L196.17-29.98Q196.03-29.64 195.91-29.32 195.78-29 195.64-28.66L195.64-28.66Q195.39-27.93 195.03-27.27 194.66-26.61 194.37-25.88L194.37-25.88Q193.93-24.9 193.46-23.9 193-22.9 192.56-21.83L192.56-21.83Q192.07-20.85 191.8-20.14 191.54-19.43 191.24-18.7 190.95-17.97 190.73-17.26 190.51-16.55 190.36-15.97L190.36-15.97Q189.92-15.19 189.63-14.79L189.63-14.79Q189.53-13.92 189.44-13.04 189.34-12.16 189.34-11.23L189.34-11.23Q189.34-10.79 189.41-10.38 189.48-9.96 189.53-9.52L189.53-9.52Q189.58-8.89 189.56-8.28 189.53-7.67 189.58-7.03L189.58-7.03Q189.63-5.81 189.7-4.61 189.78-3.42 189.83-2.15L189.83-2.15Q189.88-1.27 189.75-0.66 189.63-0.05 189.68 0.59L189.68 0.59Q189.53 0.68 189.36 0.73 189.19 0.78 189.05 0.88L189.05 0.88Q188.51 0.88 188.34 0.85 188.17 0.83 188.02 0.93L188.02 0.93Q187.58 0.63 187.53 0.66 187.48 0.68 187.43 0.68L187.43 0.68Q186.85 0.49 186.8 0.39 186.75 0.29 186.6 0.2L186.6 0.2Q186.07 0.2 185.72 0.34L185.72 0.34Q185.58 0.24 185.48 0.15 185.38 0.05 185.24-0.05L185.24-0.05Q184.8-0.1 184.5-0.17 184.21-0.24 184.02-0.34L184.02-0.34Q183.87-0.73 183.7-1.03 183.53-1.32 183.53-1.81L183.53-1.81Q183.53-2.2 183.63-2.54 183.72-2.88 183.77-3.27L183.77-3.27Q183.77-3.52 183.75-3.71 183.72-3.91 183.72-4.15L183.72-4.15Q183.72-4.39 183.82-4.79L183.82-4.79Q183.67-5.91 183.7-7.15 183.72-8.4 183.72-9.52L183.72-9.52Q183.72-10.64 183.53-11.62L183.53-11.62Q183.58-12.26 183.53-12.52 183.48-12.79 183.48-13.09L183.48-13.09Q183.48-13.33 183.53-13.6 183.58-13.87 183.58-14.11L183.58-14.11Q183.58-14.16 183.5-14.62 183.43-15.09 183.33-15.6 183.23-16.11 183.14-16.58 183.04-17.04 183.04-17.14L183.04-17.14Q182.55-18.02 182.31-18.8 182.06-19.58 181.77-20.12L181.77-20.12Q181.57-20.51 181.38-20.9 181.18-21.29 181.04-21.73L181.04-21.73Q180.94-21.97 180.87-22.27 180.79-22.56 180.7-22.8L180.7-22.8Q180.5-23.19 180.33-23.66 180.16-24.12 179.91-24.41L179.91-24.41Q179.72-24.85 179.55-25.22 179.38-25.59 179.38-25.93L179.38-25.93Q179.23-26.51 178.91-26.98 178.6-27.44 178.35-27.93L178.35-27.93Q178.21-28.22 178.13-28.47 178.06-28.71 177.96-28.96L177.96-28.96Q177.86-29.15 177.69-29.44 177.52-29.74 177.33-29.88L177.33-29.88Q177.23-30.32 176.98-30.66 176.74-31.01 176.64-31.45L176.64-31.45Q176.4-31.79 176.11-32.13L176.11-32.13Q175.91-32.86 175.57-33.47 175.23-34.08 174.93-34.77L174.93-34.77Q175.13-35.79 176.06-36.04L176.06-36.04Q176.55-36.62 176.64-36.67 176.74-36.72 177.08-36.72L177.08-36.72Q177.38-36.96 177.67-37.13 177.96-37.3 178.35-37.21L178.35-37.21Q178.4-37.4 178.62-37.55 178.84-37.7 179.04-37.7L179.04-37.7Q179.33-37.7 179.55-37.4 179.77-37.11 180.01-36.96L180.01-36.96Q180.4-36.28 180.82-35.64 181.23-35.01 181.53-34.33L181.53-34.33Q181.87-33.64 182.14-32.96 182.4-32.28 182.94-31.64L182.94-31.64Q183.19-30.66 183.7-29.81 184.21-28.96 184.55-27.98L184.55-27.98Q184.8-27.39 185.11-26.83 185.43-26.27 185.68-25.63L185.68-25.63Q185.82-25.34 185.92-25.05 186.02-24.76 186.12-24.46L186.12-24.46Q186.21-24.22 186.31-23.83 186.41-23.44 186.55-23.19L186.55-23.19Q186.9-23.54 187.14-24.07L187.14-24.07Q187.48-24.76 187.85-25.37 188.21-25.98 188.51-26.66L188.51-26.66Q188.9-27.29 189.07-27.98 189.24-28.66 189.48-29.35L189.48-29.35Q189.58-29.59 189.7-29.83 189.83-30.08 189.92-30.37L189.92-30.37Q190.07-30.66 190.17-30.96 190.27-31.25 190.36-31.54L190.36-31.54Q190.71-32.47 191.12-33.37 191.54-34.28 191.97-35.21L191.97-35.21Q192.02-35.35 192.19-35.64 192.37-35.94 192.59-36.25 192.8-36.57 193-36.82 193.2-37.06 193.34-37.16L193.34-37.16Q193.44-37.26 193.66-37.28 193.88-37.3 194.03-37.35L194.03-37.35Q194.46-37.35 194.66-37.11L194.66-37.11Q195.25-36.87 195.54-36.77 195.83-36.67 195.98-36.33L195.98-36.33Q196.71-35.84 197.08-35.77 197.44-35.69 197.64-35.35L197.64-35.35Q198.18-35.01 198.27-34.86 198.37-34.72 198.47-34.57ZM202.47-6.74L202.47-6.74Q202.96-6.79 203.18-6.42 203.4-6.05 203.69-5.96L203.69-5.96Q204.13-5.37 204.3-5.2 204.47-5.03 204.42-4.64L204.42-4.64Q204.67-4.54 204.86-4.42 205.06-4.3 205.3-4.1L205.3-4.1Q205.45-3.81 205.45-3.47L205.45-3.47Q205.45-3.32 205.45-3.15 205.45-2.98 205.4-2.83L205.4-2.83Q205.16-2.59 204.91-2.37 204.67-2.15 204.47-1.86L204.47-1.86Q203.89-1.46 203.45-1.05 203.01-0.63 202.32-0.24L202.32-0.24Q202.03-0.05 201.79 0.15 201.54 0.34 201.15 0.49L201.15 0.49Q201.15 0.29 200.98 0.22 200.81 0.15 200.71 0.05L200.71 0.05Q200.71-0.54 200.03-0.78L200.03-0.78Q199.88-1.22 199.56-1.54 199.25-1.86 199.05-2.25L199.05-2.25Q199.05-2.54 198.93-2.69 198.81-2.83 198.71-2.98L198.71-2.98Q198.22-2.98 198.1-3.32 197.98-3.66 197.98-4.05L197.98-4.05Q198.08-4.44 198.22-4.59 198.37-4.74 198.47-4.98L198.47-4.98Q199-5.47 199.74-6.18 200.47-6.88 201.01-7.18L201.01-7.18Q201.1-7.28 201.37-7.3 201.64-7.32 201.79-7.32L201.79-7.32 202.32-7.32Q202.42-7.08 202.49-7.03 202.57-6.98 202.47-6.74ZM216.43-13.33L216.43-13.33Q216.53-13.09 217.17-12.28 217.8-11.47 218.61-10.52 219.41-9.57 220.19-8.69 220.97-7.81 221.27-7.42L221.27-7.42Q222.19-6.05 223.17-4.74 224.15-3.42 225.03-2L225.03-2Q225.27-1.76 225.42-1.39 225.56-1.03 225.56-0.63L225.56-0.63Q225.56-0.2 225.34-0.17 225.12-0.15 224.88-0.05L224.88-0.05Q224.39 0.29 224 0.34 223.61 0.39 223.37 0.39L223.37 0.39Q222.83 0.39 222.19 0.37 221.56 0.34 221.12 0.44L221.12 0.44Q220.97 0.49 220.78 0.61 220.58 0.73 220.49 0.73L220.49 0.73Q220.09 0.73 219.92 0.61 219.75 0.49 219.46 0.39L219.46 0.39Q219.07-0.05 218.75-0.54 218.43-1.03 218.09-1.51L218.09-1.51Q217.8-1.86 217.46-2.12 217.12-2.39 216.82-2.78L216.82-2.78Q216.04-3.91 215.24-4.93 214.43-5.96 213.6-6.98L213.6-6.98Q213.21-7.52 212.75-8.01 212.28-8.5 211.89-8.98L211.89-8.98Q211.5-9.52 211.16-10.11 210.82-10.69 210.43-11.23L210.43-11.23Q210.13-11.72 209.6-12.43 209.06-13.13 208.47-13.87 207.89-14.6 207.28-15.26 206.67-15.92 206.23-16.26L206.23-16.26Q206.23-16.6 206.03-16.75 205.84-16.89 205.59-17.09L205.59-17.09Q205.5-17.33 205.35-17.55 205.2-17.77 205.2-18.07L205.2-18.07Q205.2-18.26 205.25-18.41 205.3-18.55 205.35-18.7L205.35-18.7Q205.45-18.9 205.47-19.07 205.5-19.24 205.59-19.43L205.59-19.43Q205.84-20.07 206.3-20.56 206.76-21.04 207.01-21.68L207.01-21.68Q207.06-21.88 207.06-22.05 207.06-22.22 207.16-22.41L207.16-22.41Q207.3-22.71 207.59-23 207.89-23.29 208.13-23.63L208.13-23.63Q208.38-24.07 208.62-24.51 208.86-24.95 209.11-25.39L209.11-25.39Q209.79-26.51 210.62-27.56 211.45-28.61 212.18-29.64L212.18-29.64Q212.87-30.62 213.45-31.57 214.04-32.52 214.72-33.5L214.72-33.5Q215.07-33.98 215.5-34.59 215.94-35.21 216.41-35.79 216.87-36.38 217.36-36.89 217.85-37.4 218.34-37.65L218.34-37.65Q219.17-37.74 219.41-37.38 219.66-37.01 220.09-37.01L220.09-37.01Q220.78-36.87 221.02-36.57 221.27-36.28 221.51-36.04L221.51-36.04Q222.15-36.04 222.58-35.79 223.02-35.55 223.46-35.06L223.46-35.06Q223.27-34.52 222.95-34.08 222.63-33.64 222.39-33.15L222.39-33.15Q222-33.01 221.83-32.67 221.66-32.32 221.32-32.08L221.32-32.08Q220.78-31.25 220.24-30.44 219.7-29.64 219.17-28.91L219.17-28.91Q218.92-28.61 218.61-28.44 218.29-28.27 218.09-27.93L218.09-27.93Q218-27.78 217.95-27.61 217.9-27.44 217.8-27.29L217.8-27.29Q217.21-26.37 216.48-25.49 215.75-24.61 215.21-23.63L215.21-23.63Q214.97-23.29 214.82-22.92 214.67-22.56 214.48-22.22L214.48-22.22Q214.28-21.92 213.92-21.39 213.55-20.85 213.19-20.29 212.82-19.73 212.55-19.21 212.28-18.7 212.28-18.36L212.28-18.36Q212.33-18.12 212.92-17.38 213.5-16.65 214.21-15.82 214.92-14.99 215.58-14.26 216.24-13.53 216.43-13.33ZM243.19-37.26L243.19-37.26Q243.24-37.11 243.65-36.91 244.07-36.72 244.16-36.72L244.16-36.72Q244.85-36.82 244.97-36.69 245.09-36.57 245.24-36.43L245.24-36.43Q245.43-36.52 245.56-36.65 245.68-36.77 245.92-36.77L245.92-36.77Q246.17-36.62 246.24-36.35 246.31-36.08 246.46-35.84L246.46-35.84Q246.41-35.21 246.46-35.03 246.51-34.86 246.51-34.67L246.51-34.67Q246.51-33.94 246.07-33.08 245.63-32.23 245.43-31.49L245.43-31.49Q245.19-31.25 245.12-30.96 245.04-30.66 244.85-30.42L244.85-30.42Q244.7-29.93 244.41-29.57 244.12-29.2 244.02-28.71L244.02-28.71Q243.97-28.66 243.8-28.37 243.63-28.08 243.43-27.73 243.24-27.39 243.07-27.05 242.89-26.71 242.85-26.61L242.85-26.61Q242.7-26.37 242.63-26.15 242.55-25.93 242.41-25.73L242.41-25.73Q242.31-25.44 242.09-25.02 241.87-24.61 241.6-24.17 241.33-23.73 241.14-23.32 240.94-22.9 240.94-22.71L240.94-22.71Q240.6-22.31 240.55-21.83L240.55-21.83Q239.23-19.34 238.21-16.72 237.18-14.11 236.01-11.57L236.01-11.57Q235.91-11.13 235.89-11.04 235.86-10.94 235.77-10.89L235.77-10.89Q235.62-10.55 235.42-10.23 235.23-9.91 235.13-9.57L235.13-9.57Q234.94-9.03 234.81-8.57 234.69-8.11 234.35-7.62L234.35-7.62Q234.3-7.32 234.15-7.06 234.01-6.79 234.06-6.49L234.06-6.49Q234.2-6.35 234.52-6.32 234.84-6.3 235.03-6.3L235.03-6.3Q235.33-6.3 235.62-6.32 235.91-6.35 236.21-6.35L236.21-6.35Q236.5-6.35 236.74-6.32 236.99-6.3 237.23-6.3L237.23-6.3 238.45-6.3Q238.65-6.3 238.82-6.27 238.99-6.25 239.14-6.25L239.14-6.25Q239.67-6.25 240.28-6.3 240.89-6.35 241.48-6.35L241.48-6.35Q241.82-6.35 242.21-6.37 242.6-6.4 242.99-6.3L242.99-6.3Q243.14-6.25 243.21-6.15 243.29-6.05 243.53-6.15L243.53-6.15Q243.97-5.71 244.07-5.62 244.16-5.52 244.26-5.42L244.26-5.42Q244.26-5.22 244.29-5.1 244.31-4.98 244.31-4.83L244.31-4.83Q244.31-4.3 244.41-4.1L244.41-4.1Q244.12-3.66 244.21-3.47L244.21-3.47 243.97-2.93Q243.97-2.69 243.87-2.42 243.77-2.15 243.87-1.9L243.87-1.9Q243.63-1.51 243.55-1.05 243.48-0.59 243.24-0.2L243.24-0.2Q242.85-0.05 242.46-0.07 242.06-0.1 241.67 0L241.67 0Q241.43-0.1 240.99-0.1L240.99-0.1Q240.6-0.1 240.23-0.05 239.87 0 239.48 0L239.48 0Q239.33 0 239.18-0.02 239.04-0.05 238.89-0.05L238.89-0.05Q238.35 0.05 238.33 0 238.31-0.05 238.21-0.05L238.21-0.05Q237.67-0.05 237.13-0.02 236.6 0 236.06 0L236.06 0Q235.86 0 235.72 0.05 235.57 0.1 235.42 0.1L235.42 0.1Q235.28 0.1 235.13 0.05 234.98 0 234.84 0L234.84 0Q234.59 0 234.3 0.05 234.01 0.1 233.72 0.1L233.72 0.1Q233.57 0.1 233.42 0.07 233.28 0.05 233.13 0.05L233.13 0.05Q232.89 0.05 232.64 0.15 232.4 0.24 232.1 0.15L232.1 0.15 231.42 0.24Q230.64 0.24 229.88 0.34 229.13 0.44 228.34 0.44L228.34 0.44Q227.9 0.44 227.76 0.39L227.76 0.39Q227.51 0.2 227.17 0.15 226.83 0.1 226.54-0.05L226.54-0.05Q226.49-0.44 226.2-0.63 225.9-0.83 225.66-1.07L225.66-1.07Q225.71-1.66 225.56-1.81L225.56-1.81Q225.61-2.59 225.27-2.83L225.27-2.83Q225.32-3.27 225.61-3.66 225.9-4.05 225.95-4.49L225.95-4.49Q226.34-4.88 226.44-5.08 226.54-5.27 226.54-5.52L226.54-5.52Q226.83-5.86 227.1-6.37 227.37-6.88 227.61-7.47 227.86-8.06 228.05-8.62 228.25-9.18 228.39-9.62L228.39-9.62Q228.78-10.16 228.98-10.74 229.17-11.33 229.42-11.91L229.42-11.91Q229.81-12.6 229.93-12.92 230.05-13.23 230.3-13.48L230.3-13.48Q230.35-13.67 230.57-14.23 230.79-14.79 231.03-15.43 231.27-16.06 231.54-16.58 231.81-17.09 231.91-17.24L231.91-17.24Q231.96-17.48 232.1-17.72 232.25-17.97 232.25-18.21L232.25-18.21Q232.74-18.85 233.03-19.78 233.32-20.7 233.67-21.39L233.67-21.39Q234.01-22.12 234.4-22.83 234.79-23.54 235.18-24.27L235.18-24.27Q236.69-27.2 238.21-30.18L238.21-30.18Q238.11-30.42 237.79-30.42 237.48-30.42 237.28-30.57L237.28-30.57Q236.89-30.47 236.55-30.52 236.21-30.57 235.81-30.57L235.81-30.57Q234.89-30.76 234.28-30.74 233.67-30.71 233.08-30.71L233.08-30.71Q232.79-30.71 232.47-30.76 232.15-30.81 231.86-30.81L231.86-30.81Q231.13-30.81 230.37-30.71 229.61-30.62 228.93-30.47L228.93-30.47Q228.49-30.57 228.03-30.57 227.56-30.57 227.17-30.66L227.17-30.66Q226.98-31.4 227.07-31.49L227.07-31.49Q226.98-31.64 226.85-31.76 226.73-31.88 226.64-32.03L226.64-32.03Q226.68-32.47 226.56-32.59 226.44-32.71 226.34-32.96L226.34-32.96Q226.34-33.3 226.32-33.62 226.29-33.94 226.39-34.28L226.39-34.28Q226.29-34.47 226.15-34.59 226-34.72 225.9-34.86L225.9-34.86Q225.95-35.11 225.93-35.28 225.9-35.45 225.95-35.64L225.95-35.64Q226.24-35.89 226.59-36.01 226.93-36.13 227.12-36.43L227.12-36.43Q227.76-36.62 228.42-36.67 229.08-36.72 229.71-36.72L229.71-36.72Q230.39-36.72 231.01-36.69 231.62-36.67 232.2-36.62L232.2-36.62Q232.64-36.62 233.01-36.5 233.37-36.38 233.76-36.33L233.76-36.33Q234.01-36.28 234.25-36.3 234.5-36.33 234.74-36.33L234.74-36.33Q235.57-36.33 236.43-36.3 237.28-36.28 238.11-36.28L238.11-36.28Q238.79-36.28 239.38-36.28 239.97-36.28 240.55-36.38L240.55-36.38Q240.75-36.57 240.84-36.77 240.94-36.96 241.04-37.16L241.04-37.16Q241.48-37.16 241.63-37.13 241.77-37.11 241.87-37.11L241.87-37.11 242.46-36.87Q242.65-36.87 242.89-36.94 243.14-37.01 243.19-37.26Z" opacity="1" transform="matrix(1,0,0,1,0,0)" fill="white" class="wordmark-text-0" id="SvgjsPath1812"></path></svg></g></svg></g></svg></g></svg></g><g transform="matrix(1,0,0,1,410.73794341709436,0)"><svg viewBox="0 0 89.08814029689047 89.08655603460086" height="89.08655603460086" width="89.08814029689047"><g><svg xmlns="http://www.w3.org/2000/svg" xmlns:xlink="http://www.w3.org/1999/xlink" version="1.1" x="0" y="0" viewBox="10.22832525372998 11.525152021935746 66.9510966778763 66.94990608059408" enable-background="new 0 0 90 90" xml:space="preserve" height="89.08655603460086" width="89.08814029689047" class="icon-icon-0" data-fill-palette-color="accent" id="SvgjsSvg1811"><path d="M28.453 36.307c0.364-0.197 0.955-0.603 1.652-1.043 3.134-2.079 9.266-6.111 9.375-6.29 0.869-0.555 1.735-1.094 2.52-1.623 2.748-1.876 5.175-3.42 7.44-4.73 0.869-0.536 1.764-0.982 2.579-1.43 3.695-1.814 7.188-2.943 11.242-3.305 3.219 2.274 5.962 5.13 8.179 8.425-9.431 3.432-18.717 8.896-37.979 20.845C32.373 44.645 28.738 36.795 28.453 36.307" fill="black"></path><g fill="black"><path d="M37.382 56.766c-0.391-0.988-2.127-5.285-2.797-6.928 19.754-12.274 28.903-17.662 38.361-21.023 1.489 2.638 2.599 5.512 3.331 8.58C70.823 44.823 56.323 52.106 37.382 56.766" fill="black"></path><path d="M39.48 25.586c-7.386-4.383-15.783-3.192-22.246-0.979 2.379-3.133 5.372-5.866 8.762-7.952 6.097-1.26 14.579-1.43 21.261 3.92C44.856 21.969 42.28 23.691 39.48 25.586" fill="black"></path><path d="M68.975 60.861c-0.951 0.728-2.018 1.324-3.079 1.942-2.208 1.202-4.478 2.242-6.964 3.158-1.034 0.37-2.105 0.778-3.168 1.091-3.66 1.206-12.142 3.378-12.785 3.563-0.138-0.323-3.327-8.204-4.555-11.219 14.77-3.62 30.799-10.016 38.527-18.31 0.447 3.831 0.227 7.617-0.564 11.216C74.799 55.831 72.189 58.629 68.975 60.861" fill="black"></path><path d="M42.502 73.682l3.022-0.82c2.853-0.708 5.96-1.519 9.094-2.459-1.513 3.254-3.913 5.799-6.521 7.792-3.463 0.44-6.854 0.357-10.068-0.217C40.374 76.131 42.502 73.682 42.502 73.682" fill="black"></path><path d="M11.698 35.293c0.726-2.271 1.616-4.469 2.742-6.562 5.847-2.604 14.692-5.129 22.38-1.362l-10.662 7.062c-2.212-0.214-4.228-0.274-6.097-0.214-1.009 0-1.933 0.067-2.88 0.131C15.078 34.556 13.314 34.903 11.698 35.293" fill="black"></path><path d="M17.146 37.261c0.31 17.438 8.563 30.973 15.676 39.418-11.14-3.888-19.891-13.447-22.078-25.853-0.762-4.223-0.649-8.392 0.138-12.359C12.617 37.95 14.691 37.48 17.146 37.261" fill="black"></path><path d="M49.945 19.12c-4.984-4.42-10.884-5.9-16.282-6 1.368-0.446 2.771-0.861 4.22-1.087 7.7-1.362 15.282 0.08 21.717 3.553C56.191 16.225 53.135 17.459 49.945 19.12" fill="black"></path><path d="M25.8 37.261c2.491 5.285 3.996 8.498 5.257 11.419 0.364 0.95 0.705 1.764 1.096 2.695 0.585 1.477 2.405 6.028 2.405 6.028l1.089 2.692 4.678 11.63c-1.292 1.751-2.883 3.133-4.394 4.22-7.001-7.983-15.674-21.349-15.928-38.856C21.748 37.031 23.697 37.089 25.8 37.261" fill="black"></path><path d="M58.141 69.241c2.354-0.82 4.645-1.751 6.889-2.813-0.838 2.577-2.044 4.836-3.247 6.736-2.461 1.634-5.228 2.871-8.171 3.815C55.514 74.858 57.162 72.266 58.141 69.241" fill="black"></path><path d="M68.477 64.556c1.561-0.961 3.074-2.022 4.41-3.199-1.532 2.812-3.459 5.333-5.757 7.568C67.714 67.534 68.16 66.105 68.477 64.556" fill="black"></path></g></svg></g></svg></g></svg></g><defs><mask></mask></defs></svg><rect width="395.5199999999999" height="70.49554993406092" fill="black" stroke="none" visibility="hidden"></rect></g></mask><linearGradient x1="0" x2="1" y1="0.5" y2="0.5" id="ba9abd96-11af-4883-b1e3-4eb5a9ecdcff"><stop stop-color="#ffa62e" offset="0"></stop><stop stop-color="#f71b3d" offset="1"></stop></linearGradient><rect width="395.5199999999999" height="70.49554993406092" fill="url(#ba9abd96-11af-4883-b1e3-4eb5a9ecdcff)" mask="url(#8065f059-e2ac-4166-a9ee-479231166f16)" data-fill-palette-color="primary"></rect><mask id="28913a15-4e42-46a9-bb4f-134a74051044"><g id="SvgjsG1834"><svg viewBox="0 0 395.5199999999999 70.49554993406092" height="70.49554993406092" width="395.5199999999999"><g><svg viewBox="0 0 499.8260837139848 89.08655603460086" height="70.49554993406092" width="395.5199999999999"><g transform="matrix(1,0,0,1,0,12.312251955577977)"><svg viewBox="0 0 395.52 64.4620521234449" height="64.4620521234449" width="395.52"><g id="SvgjsG1833"><svg viewBox="0 0 395.52 64.4620521234449" height="64.4620521234449" width="395.52" id="SvgjsSvg1832"><g><svg viewBox="0 0 395.52 64.4620521234449" height="64.4620521234449" width="395.52"><g transform="matrix(1,0,0,1,0,0)"><svg width="395.52" viewBox="-0.73 -37.7 247.23999999999998 40.30666666666667" height="64.4620521234449" data-palette-color="url(#ba9abd96-11af-4883-b1e3-4eb5a9ecdcff)"></svg></g></svg></g></svg></g></svg></g><g transform="matrix(1,0,0,1,410.73794341709436,0)"><svg viewBox="0 0 89.08814029689047 89.08655603460086" height="89.08655603460086" width="89.08814029689047"><g><svg xmlns="http://www.w3.org/2000/svg" xmlns:xlink="http://www.w3.org/1999/xlink" version="1.1" x="0" y="0" viewBox="10.22832525372998 11.525152021935746 66.9510966778763 66.94990608059408" enable-background="new 0 0 90 90" xml:space="preserve" height="89.08655603460086" width="89.08814029689047" class="icon-icon-0" data-fill-palette-color="accent" id="SvgjsSvg1831"><path d="M28.453 36.307c0.364-0.197 0.955-0.603 1.652-1.043 3.134-2.079 9.266-6.111 9.375-6.29 0.869-0.555 1.735-1.094 2.52-1.623 2.748-1.876 5.175-3.42 7.44-4.73 0.869-0.536 1.764-0.982 2.579-1.43 3.695-1.814 7.188-2.943 11.242-3.305 3.219 2.274 5.962 5.13 8.179 8.425-9.431 3.432-18.717 8.896-37.979 20.845C32.373 44.645 28.738 36.795 28.453 36.307" fill="white"></path><g fill="white"><path d="M37.382 56.766c-0.391-0.988-2.127-5.285-2.797-6.928 19.754-12.274 28.903-17.662 38.361-21.023 1.489 2.638 2.599 5.512 3.331 8.58C70.823 44.823 56.323 52.106 37.382 56.766" fill="white"></path><path d="M39.48 25.586c-7.386-4.383-15.783-3.192-22.246-0.979 2.379-3.133 5.372-5.866 8.762-7.952 6.097-1.26 14.579-1.43 21.261 3.92C44.856 21.969 42.28 23.691 39.48 25.586" fill="white"></path><path d="M68.975 60.861c-0.951 0.728-2.018 1.324-3.079 1.942-2.208 1.202-4.478 2.242-6.964 3.158-1.034 0.37-2.105 0.778-3.168 1.091-3.66 1.206-12.142 3.378-12.785 3.563-0.138-0.323-3.327-8.204-4.555-11.219 14.77-3.62 30.799-10.016 38.527-18.31 0.447 3.831 0.227 7.617-0.564 11.216C74.799 55.831 72.189 58.629 68.975 60.861" fill="white"></path><path d="M42.502 73.682l3.022-0.82c2.853-0.708 5.96-1.519 9.094-2.459-1.513 3.254-3.913 5.799-6.521 7.792-3.463 0.44-6.854 0.357-10.068-0.217C40.374 76.131 42.502 73.682 42.502 73.682" fill="white"></path><path d="M11.698 35.293c0.726-2.271 1.616-4.469 2.742-6.562 5.847-2.604 14.692-5.129 22.38-1.362l-10.662 7.062c-2.212-0.214-4.228-0.274-6.097-0.214-1.009 0-1.933 0.067-2.88 0.131C15.078 34.556 13.314 34.903 11.698 35.293" fill="white"></path><path d="M17.146 37.261c0.31 17.438 8.563 30.973 15.676 39.418-11.14-3.888-19.891-13.447-22.078-25.853-0.762-4.223-0.649-8.392 0.138-12.359C12.617 37.95 14.691 37.48 17.146 37.261" fill="white"></path><path d="M49.945 19.12c-4.984-4.42-10.884-5.9-16.282-6 1.368-0.446 2.771-0.861 4.22-1.087 7.7-1.362 15.282 0.08 21.717 3.553C56.191 16.225 53.135 17.459 49.945 19.12" fill="white"></path><path d="M25.8 37.261c2.491 5.285 3.996 8.498 5.257 11.419 0.364 0.95 0.705 1.764 1.096 2.695 0.585 1.477 2.405 6.028 2.405 6.028l1.089 2.692 4.678 11.63c-1.292 1.751-2.883 3.133-4.394 4.22-7.001-7.983-15.674-21.349-15.928-38.856C21.748 37.031 23.697 37.089 25.8 37.261" fill="white"></path><path d="M58.141 69.241c2.354-0.82 4.645-1.751 6.889-2.813-0.838 2.577-2.044 4.836-3.247 6.736-2.461 1.634-5.228 2.871-8.171 3.815C55.514 74.858 57.162 72.266 58.141 69.241" fill="white"></path><path d="M68.477 64.556c1.561-0.961 3.074-2.022 4.41-3.199-1.532 2.812-3.459 5.333-5.757 7.568C67.714 67.534 68.16 66.105 68.477 64.556" fill="white"></path></g></svg></g></svg></g></svg></g><defs><mask></mask></defs><mask><g id="SvgjsG1830"><svg viewBox="0 0 395.5199999999999 70.49554993406092" height="70.49554993406092" width="395.5199999999999"><g><svg viewBox="0 0 499.8260837139848 89.08655603460086" height="70.49554993406092" width="395.5199999999999"><g transform="matrix(1,0,0,1,0,12.312251955577977)"><svg viewBox="0 0 395.52 64.4620521234449" height="64.4620521234449" width="395.52"><g id="SvgjsG1829"><svg viewBox="0 0 395.52 64.4620521234449" height="64.4620521234449" width="395.52" id="SvgjsSvg1828"><g><svg viewBox="0 0 395.52 64.4620521234449" height="64.4620521234449" width="395.52"><g transform="matrix(1,0,0,1,0,0)"><svg width="395.52" viewBox="-0.73 -37.7 247.23999999999998 40.30666666666667" height="64.4620521234449" data-palette-color="url(#ba9abd96-11af-4883-b1e3-4eb5a9ecdcff)"><path d="M22.9-34.91L22.9-34.91Q22.8-34.72 22.83-34.52 22.85-34.33 22.85-34.08L22.85-34.08Q22.75-33.5 22.85-33.5 22.95-33.5 22.95-33.4L22.95-33.4 22.61-32.91Q22.61-32.62 22.49-32.37 22.36-32.13 22.41-31.79L22.41-31.79Q22.27-31.54 22.14-31.3 22.02-31.05 21.78-30.81L21.78-30.81 21.14-30.81Q20.61-30.81 20-30.74 19.38-30.66 18.8-30.66L18.8-30.66Q18.7-30.66 18.55-30.69 18.41-30.71 18.26-30.71L18.26-30.71Q18.16-30.71 18.02-30.69 17.87-30.66 17.68-30.66L17.68-30.66Q16.94-30.66 16.24-30.74 15.53-30.81 14.75-30.81L14.75-30.81Q14.55-30.81 14.36-30.81 14.16-30.81 13.92-30.76L13.92-30.76Q13.87-29.93 13.84-29.08 13.82-28.22 13.82-27.34L13.82-27.34Q13.82-27.1 13.77-26.83 13.72-26.56 13.72-26.32L13.72-26.32Q13.67-25.68 13.65-25.1 13.62-24.51 13.62-23.88L13.62-23.88Q13.62-22.51 13.65-21.14 13.67-19.78 13.72-18.36L13.72-18.36Q13.77-17.63 13.82-16.94 13.87-16.26 13.87-15.53L13.87-15.53Q13.87-13.87 13.82-12.23 13.77-10.6 13.77-8.94L13.77-8.94Q13.77-8.4 13.72-7.93 13.67-7.47 13.67-6.93L13.67-6.93Q13.67-5.81 13.72-4.69 13.77-3.56 13.77-2.44L13.77-2.44Q13.77-1.9 13.75-1.37 13.72-0.83 13.72-0.29L13.72-0.29Q13.48 0.1 13.38 0.39 13.28 0.68 12.79 0.68L12.79 0.68Q12.45 0.59 12.48 0.46 12.5 0.34 12.4 0.24L12.4 0.24Q11.96 0.2 11.74 0.32 11.52 0.44 11.23 0.54L11.23 0.54Q11.08 0.49 10.91 0.49 10.74 0.49 10.6 0.49L10.6 0.49Q10.5 0.49 10.4 0.56 10.3 0.63 9.96 0.63L9.96 0.63Q9.67 0.68 9.62 0.54 9.57 0.39 9.33 0.39L9.33 0.39Q9.08 0.54 8.76 0.61 8.45 0.68 8.15 0.68L8.15 0.68Q7.86 0.49 7.89 0.32 7.91 0.15 7.81-0.05L7.81-0.05Q7.76-0.15 7.64-0.32 7.52-0.49 7.42-0.59L7.42-0.59Q7.52-1.27 7.57-1.81 7.62-2.34 7.62-2.98L7.62-2.98Q7.62-4.25 7.52-5.47 7.42-6.69 7.42-7.96L7.42-7.96Q7.42-8.35 7.52-8.79 7.62-9.23 7.62-9.72L7.62-9.72Q7.52-10.11 7.57-10.18 7.62-10.25 7.62-10.35L7.62-10.35Q7.62-10.64 7.59-10.94 7.57-11.23 7.57-11.52L7.57-11.52Q7.57-12.11 7.59-12.7 7.62-13.28 7.62-13.87L7.62-13.87Q7.62-14.11 7.59-14.38 7.57-14.65 7.57-14.89L7.57-14.89Q7.52-15.33 7.54-15.82 7.57-16.31 7.57-16.8L7.57-16.8Q7.57-19.14 7.5-21.44 7.42-23.73 7.42-26.07L7.42-26.07Q7.42-27.25 7.54-28.39 7.67-29.54 7.67-30.71L7.67-30.71Q7.67-30.86 7.57-31.1 7.47-31.35 7.37-31.45L7.37-31.45Q7.13-31.45 6.91-31.47 6.69-31.49 6.45-31.49L6.45-31.49Q5.91-31.49 5.42-31.35L5.42-31.35Q4.49-31.3 3.64-31.23 2.78-31.15 1.9-31.1L1.9-31.1Q1.32-31.15 1.2-31.13 1.07-31.1 0.93-31.1L0.93-31.1Q0.54-31.1 0.34-31.3L0.34-31.3 0.34-31.93Q0.05-32.52 0.1-32.57 0.15-32.62 0.15-32.71L0.15-32.71Q0.15-32.86-0.12-33.03-0.39-33.2-0.39-33.59L-0.39-33.59Q-0.44-33.98-0.59-34.18-0.73-34.38-0.73-34.57L-0.73-34.57Q-0.73-34.91-0.59-35.35L-0.59-35.35Q-0.15-35.6 0.27-35.69 0.68-35.79 1.22-35.94L1.22-35.94Q1.51-36.04 1.76-36.13 2-36.23 2.29-36.28L2.29-36.28Q2.64-36.33 2.98-36.33 3.32-36.33 3.66-36.38L3.66-36.38Q4.39-36.52 5.2-36.62 6.01-36.72 6.74-36.72L6.74-36.72Q7.42-36.72 8.11-36.55 8.79-36.38 9.33-36.38L9.33-36.38Q10.11-36.38 10.82-36.28 11.52-36.18 12.3-36.18L12.3-36.18Q12.4-36.18 12.62-36.11 12.84-36.04 13.13-36.04L13.13-36.04 17.87-36.04Q18.26-35.94 18.43-35.99 18.6-36.04 18.75-36.04L18.75-36.04Q19.14-36.04 19.48-35.99 19.82-35.94 20.21-35.94L20.21-35.94Q20.56-35.94 20.75-35.99L20.75-35.99Q21.14-35.94 21.48-35.77 21.83-35.6 22.27-35.6L22.27-35.6Q22.46-35.45 22.56-35.23 22.66-35.01 22.9-34.91ZM45.46-5.86L45.46-5.86Q44.97-5.81 44.87-5.91L44.87-5.91Q44.68-5.81 44.5-5.71 44.33-5.62 44.14-5.47L44.14-5.47Q43.45-5.22 42.8-4.83 42.14-4.44 41.45-4.1L41.45-4.1Q41.06-3.91 40.7-3.78 40.33-3.66 39.94-3.47L39.94-3.47Q39.35-3.17 38.77-2.86 38.18-2.54 37.55-2.29L37.55-2.29Q37.2-2.2 36.89-2.1 36.57-2 36.23-1.9L36.23-1.9Q35.84-1.76 35.52-1.59 35.2-1.42 34.86-1.27L34.86-1.27Q34.62-1.17 34.35-1.1 34.08-1.03 33.79-0.88L33.79-0.88Q33.54-0.78 33.37-0.63 33.2-0.49 32.96-0.39L32.96-0.39Q32.57-0.24 32.15-0.1 31.74 0.05 31.35 0.24L31.35 0.24Q30.95 0.44 30.78 0.61 30.61 0.78 30.12 0.93L30.12 0.93Q29.64 1.22 29.59 1.25 29.54 1.27 29.44 1.27L29.44 1.27Q29.29 1.37 29.17 1.44 29.05 1.51 28.9 1.61L28.9 1.61Q28.61 1.61 28.32 1.66 28.02 1.71 27.73 1.71L27.73 1.71Q27.39 1.51 27.27 1.32 27.15 1.12 27.15 0.78L27.15 0.78Q26.95 0.54 26.78 0.24 26.61-0.05 26.41-0.29L26.41-0.29Q26.07-0.1 26-0.32 25.93-0.54 25.88-0.81 25.83-1.07 25.78-1.34 25.73-1.61 25.68-1.71L25.68-1.71Q25.44-2.64 25.44-3.08L25.44-3.08Q25.44-3.32 25.53-3.39 25.63-3.47 25.63-3.61L25.63-3.61Q25.68-4.1 25.73-4.74 25.78-5.37 25.78-6.05 25.78-6.74 25.78-7.42 25.78-8.11 25.78-8.64L25.78-8.64Q25.78-10.84 25.73-12.92 25.68-14.99 25.68-17.09L25.68-17.09Q25.68-18.07 25.73-19.04 25.78-20.02 25.78-21L25.78-21Q25.78-23.39 25.85-25.73 25.93-28.08 25.93-30.47L25.93-30.47Q25.93-31.45 25.83-32.45 25.73-33.45 25.68-34.47L25.68-34.47Q25.63-35.01 25.73-35.33 25.83-35.64 25.78-35.99L25.78-35.99Q25.93-36.04 26.32-36.04 26.71-36.04 27.12-36.06 27.54-36.08 27.9-36.11 28.27-36.13 28.37-36.18L28.37-36.18Q28.71-35.94 29.05-35.94L29.05-35.94Q29.39-35.94 29.68-36.23L29.68-36.23Q29.93-36.13 29.95-36.08 29.98-36.04 30.22-36.04L30.22-36.04Q30.66-36.08 30.91-36.11 31.15-36.13 31.35-36.13L31.35-36.13Q31.88-35.74 32-35.18 32.13-34.62 32.18-34.01 32.22-33.4 32.25-32.79 32.27-32.18 32.27-31.79L32.27-31.79Q32.27-31.49 32.32-31.18 32.37-30.86 32.37-30.52L32.37-30.52Q32.37-30.27 32.35-30.03 32.32-29.79 32.32-29.54L32.32-29.54Q32.32-28.13 32.35-26.66 32.37-25.2 32.37-23.78L32.37-23.78Q32.37-21.24 32.3-18.68 32.22-16.11 32.22-13.57L32.22-13.57Q32.22-13.04 32.27-12.5 32.32-11.96 32.32-11.43L32.32-11.43Q32.32-11.13 32.3-10.84 32.27-10.55 32.27-10.25L32.27-10.25Q32.27-8.45 32.42-6.64L32.42-6.64Q32.61-6.69 33.25-6.91 33.88-7.13 34.57-7.4 35.25-7.67 35.84-7.93 36.42-8.2 36.57-8.35L36.57-8.35Q36.77-8.35 37.11-8.5 37.45-8.64 37.84-8.86 38.23-9.08 38.6-9.28 38.96-9.47 39.11-9.62L39.11-9.62Q39.06-10.6 39.06-11.6 39.06-12.6 39.06-13.57L39.06-13.57Q39.06-16.26 39.13-18.95 39.21-21.63 39.21-24.41L39.21-24.41Q39.21-26.12 39.16-27.83 39.11-29.54 39.11-31.25L39.11-31.25Q39.11-31.79 39.13-32.35 39.16-32.91 39.16-33.45L39.16-33.45Q39.16-34.28 39.13-35.08 39.11-35.89 39.21-36.72L39.21-36.72Q39.69-36.96 39.74-36.96L39.74-36.96Q40.04-36.96 40.16-36.96 40.28-36.96 40.38-36.87L40.38-36.87Q40.52-36.82 40.65-36.84 40.77-36.87 40.92-36.87L40.92-36.87Q41.16-36.87 41.4-36.77 41.65-36.67 41.89-36.67L41.89-36.67Q42.28-36.72 42.31-36.57 42.33-36.43 42.48-36.43L42.48-36.43Q42.87-36.57 43.02-36.43L43.02-36.43Q43.16-36.33 43.55-36.16 43.94-35.99 44.38-35.79 44.82-35.6 45.16-35.42 45.51-35.25 45.51-35.11L45.51-35.11Q45.65-34.33 45.6-33.45 45.55-32.57 45.55-31.79L45.55-31.79Q45.55-31.1 45.6-30.42 45.65-29.74 45.65-29.05L45.65-29.05Q45.65-28.66 45.65-28.27 45.65-27.88 45.7-27.54L45.7-27.54Q45.75-27.29 45.75-27.12 45.75-26.95 45.75-26.76L45.75-26.76Q45.75-26.51 45.85-26.12L45.85-26.12Q45.8-25.88 45.8-25.61 45.8-25.34 45.8-25.1L45.8-25.1Q45.8-24.41 45.85-23.68 45.9-22.95 45.9-22.22L45.9-22.22Q45.9-21.73 45.82-21.29 45.75-20.85 45.75-20.41L45.75-20.41 45.8-19.48Q45.8-18.99 45.85-18.51 45.9-18.02 45.9-17.48L45.9-17.48Q45.9-17.24 45.87-16.99 45.85-16.75 45.8-16.5L45.8-16.5Q45.75-16.26 45.75-15.97 45.75-15.67 45.75-15.43L45.75-15.43Q45.75-14.75 45.8-14.06 45.85-13.38 45.85-12.7L45.85-12.7Q45.85-12.26 45.82-11.84 45.8-11.43 45.8-10.99L45.8-10.99Q45.8-10.11 45.87-9.18 45.94-8.25 45.94-7.37L45.94-7.37Q45.94-6.98 45.85-6.54 45.75-6.1 45.46-5.86ZM73.68-4.69L73.68-4.69Q73.63-3.96 73.99-3.59 74.36-3.22 74.6-2.69L74.6-2.69Q74.51-2 74.75-1.61L74.75-1.61Q74.6-1.32 74.46-0.95 74.31-0.59 74.02-0.34L74.02-0.34Q73.24 0 73.09 0.24 72.94 0.49 72.5 0.49L72.5 0.49Q72.26 0.73 71.97 1 71.67 1.27 71.43 1.51L71.43 1.51Q71.19 1.42 71.09 1.27 70.99 1.12 70.8 0.88L70.8 0.88Q70.31 0.73 69.92 0.37 69.53 0 69.23-0.46 68.94-0.93 68.67-1.44 68.4-1.95 68.21-2.39L68.21-2.39Q67.52-3.66 66.82-4.96 66.11-6.25 65.38-7.52L65.38-7.52Q64.99-8.15 64.62-8.81 64.25-9.47 63.86-10.16L63.86-10.16Q63.76-10.25 63.67-10.38 63.57-10.5 63.47-10.64L63.47-10.64Q63.13-11.13 62.96-11.74 62.79-12.35 62.25-12.74L62.25-12.74Q61.32-12.84 60.57-12.48 59.81-12.11 59.22-11.52L59.22-11.52Q59.27-11.18 59.27-10.89 59.27-10.6 59.27-10.3L59.27-10.3Q59.27-9.18 59.17-8.15 59.08-7.13 59.08-6.01L59.08-6.01Q59.08-5.52 59.13-5 59.17-4.49 59.27-4L59.27-4Q59.13-3.47 59.13-2.83L59.13-2.83Q59.13-2.49 59.2-2.2 59.27-1.9 59.27-1.56L59.27-1.56Q59.27-1.07 58.95-0.9 58.64-0.73 58.74-0.29L58.74-0.29Q58.15-0.05 57.61 0.2 57.08 0.44 56.49 0.54L56.49 0.54Q56.25 0.59 56 0.56 55.76 0.54 55.56 0.63L55.56 0.63Q55.32 0.73 55.17 1 55.02 1.27 54.78 1.27L54.78 1.27Q54.49 1.27 54.44 1.05 54.39 0.83 54.24 0.68L54.24 0.68Q54 0.59 53.85 0.59 53.71 0.59 53.56 0.44L53.56 0.44Q53.61 0 53.36-0.22 53.12-0.44 53.12-1.12L53.12-1.12Q53.12-1.66 53.19-2.15 53.27-2.64 53.27-3.17L53.27-3.17Q53.27-3.61 53.14-3.98 53.02-4.35 52.92-4.79L52.92-4.79Q52.88-4.98 52.92-5.18 52.97-5.37 52.97-5.57L52.97-5.57Q52.97-6.45 52.9-7.35 52.83-8.25 52.83-9.13L52.83-9.13Q52.83-9.47 52.83-9.77 52.83-10.06 52.88-10.35L52.88-10.35Q52.97-10.64 53.05-10.84 53.12-11.04 53.12-11.33L53.12-11.33Q53.12-12.26 52.92-13.16 52.73-14.06 52.73-14.94L52.73-14.94Q52.73-15.43 52.75-15.94 52.78-16.46 52.78-16.94L52.78-16.94Q52.78-18.36 52.73-19.73 52.68-21.09 52.68-22.46L52.68-22.46Q52.68-23.44 52.73-24.39 52.78-25.34 52.78-26.32L52.78-26.32Q52.78-27.54 52.68-28.74 52.58-29.93 52.58-31.2L52.58-31.2Q52.58-31.64 52.53-31.79 52.49-31.93 52.39-31.96 52.29-31.98 52.17-32.01 52.05-32.03 51.95-32.18L51.95-32.18Q51.95-32.47 52.19-32.59 52.44-32.71 52.44-33.4L52.44-33.4Q52.44-33.79 52.36-34.18 52.29-34.57 52.29-34.96L52.29-34.96Q52.29-35.55 52.53-36.13 52.78-36.72 52.97-37.26L52.97-37.26Q53.56-37.3 53.78-37.26 54-37.21 54.24-37.3L54.24-37.3Q54.39-36.77 54.88-36.74 55.37-36.72 55.76-36.62L55.76-36.62Q56.2-36.57 56.61-36.4 57.03-36.23 57.42-36.23L57.42-36.23Q57.51-35.94 57.83-35.82 58.15-35.69 58.49-35.6L58.49-35.6Q58.88-35.64 59.1-35.94 59.32-36.23 59.71-36.23L59.71-36.23Q60-36.23 60.4-35.82 60.79-35.4 60.98-35.16L60.98-35.16Q61.18-35.01 61.71-34.52 62.25-34.03 62.89-33.52 63.52-33.01 64.06-32.54 64.59-32.08 64.74-32.03L64.74-32.03Q66.74-30.03 68.48-28.39 70.21-26.76 72.26-25.44L72.26-25.44Q72.31-25.29 72.38-25.2 72.46-25.1 72.55-24.95L72.55-24.95Q72.55-24.56 72.41-24.37 72.26-24.17 72.26-23.88L72.26-23.88Q72.26-23.73 72.33-23.58 72.41-23.44 72.41-23.29L72.41-23.29Q72.46-23.1 72.43-22.92 72.41-22.75 72.41-22.56L72.41-22.56Q72.41-22.07 72.72-21.68 73.04-21.29 73.04-20.8L73.04-20.8Q72.94-20.36 72.65-20.26 72.36-20.17 72.16-20.02L72.16-20.02Q72.07-19.92 71.99-19.78 71.92-19.63 71.82-19.53L71.82-19.53Q70.75-19.04 70.26-18.63 69.77-18.21 69.23-17.82L69.23-17.82Q69.09-17.72 68.75-17.5 68.4-17.29 68.06-17.07 67.72-16.85 67.45-16.6 67.18-16.36 67.18-16.21L67.18-16.21Q67.18-15.87 67.6-15.26 68.01-14.65 68.21-14.31L68.21-14.31Q68.75-13.43 69.18-12.57 69.62-11.72 70.16-10.89L70.16-10.89Q71.14-9.38 71.99-7.81 72.85-6.25 73.68-4.69ZM65.72-22.85L65.72-22.85Q64.59-24.27 63.3-25.42 62.01-26.56 60.83-27.83L60.83-27.83 60.3-27.93Q60-28.42 59.64-28.78 59.27-29.15 58.88-29.54L58.88-29.54Q58.93-29 58.93-28.52 58.93-28.03 58.93-27.49L58.93-27.49Q58.93-25.93 58.86-24.44 58.78-22.95 58.78-21.44L58.78-21.44Q58.78-19.92 58.93-18.55L58.93-18.55Q59.96-18.55 60.79-19.14L60.79-19.14Q61.13-19.38 61.42-19.65 61.71-19.92 62.06-20.17L62.06-20.17Q62.45-20.41 62.96-20.75 63.47-21.09 63.98-21.44 64.5-21.78 64.96-22.14 65.42-22.51 65.72-22.85ZM93.5-36.43L93.5-36.43Q94.28-36.52 94.69-36.3 95.11-36.08 95.55-36.04L95.55-36.04Q95.79-35.99 96.06-36.01 96.33-36.04 96.62-36.04L96.62-36.04Q97.26-36.04 97.62-35.89 97.99-35.74 98.38-35.25L98.38-35.25Q98.48-35.16 98.65-34.99 98.82-34.81 98.82-34.67L98.82-34.67Q98.82-34.28 98.63-33.98 98.43-33.69 98.43-33.15L98.43-33.15Q98.43-32.32 98.63-31.52 98.82-30.71 98.87-29.88L98.87-29.88Q99.11-26.86 99.14-23.8 99.16-20.75 99.16-17.77L99.16-17.77Q99.16-17.38 99.14-17.07 99.11-16.75 98.92-16.5L98.92-16.5 98.92-15.87Q98.87-14.6 98.97-13.31 99.06-12.01 99.06-10.74L99.06-10.74Q99.06-9.62 98.94-8.5 98.82-7.37 98.82-6.2L98.82-6.2Q98.82-5.13 98.97-4.1 99.11-3.08 99.11-2L99.11-2Q98.87-1.56 98.82-1.32 98.77-1.07 98.63-0.88L98.63-0.88Q98.48-0.78 98.31-0.83 98.14-0.88 98.04-0.73L98.04-0.73Q97.8-0.44 97.7-0.05 97.6 0.34 97.21 0.59L97.21 0.59Q97.11 1.27 96.7 1.64 96.28 2 96.09 2.59L96.09 2.59Q95.5 2.64 95.28 2.54 95.06 2.44 94.82 2.34L94.82 2.34Q94.77 1.51 94.84 1.15 94.91 0.78 94.91 0.39L94.91 0.39Q94.91-0.1 94.67-0.34 94.43-0.59 94.33-0.98L94.33-0.98Q93.79-1.32 93.6-1.44 93.4-1.56 93.25-1.76L93.25-1.76Q92.96-2.15 92.77-2.59 92.57-3.03 92.33-3.42L92.33-3.42Q91.64-4.54 90.93-5.71 90.23-6.88 89.4-8.01L89.4-8.01Q89.25-8.25 89.06-8.45 88.86-8.64 88.71-8.89L88.71-8.89Q87.88-10.21 87.15-11.57 86.42-12.94 85.44-14.16L85.44-14.16Q85.05-14.65 84.86-15.26 84.66-15.87 84.27-16.31L84.27-16.31Q84.22-16.06 84.22-15.77 84.22-15.48 84.22-15.23L84.22-15.23Q84.22-13.57 84.29-11.94 84.37-10.3 84.37-8.64L84.37-8.64Q84.37-8.3 84.29-8.03 84.22-7.76 84.22-7.42L84.22-7.42Q84.22-6.93 84.27-6.49 84.32-6.05 84.32-5.62L84.32-5.62Q84.32-5.08 84.29-4.59 84.27-4.1 84.22-3.61L84.22-3.61Q84.12-2.98 83.98-2.42 83.83-1.86 83.83-1.27L83.83-1.27Q83.83-0.93 83.9-0.63 83.98-0.34 83.98-0.1L83.98-0.1Q83.64 0.44 83.12 0.44 82.61 0.44 82.27 0.83L82.27 0.83Q81.97 0.78 81.8 0.88 81.63 0.98 81.49 0.98L81.49 0.98Q81.29 0.98 81.17 0.93 81.05 0.88 80.9 0.88L80.9 0.88Q80.66 0.88 80.41 1.12 80.17 1.37 79.92 1.37L79.92 1.37Q79.78 1.37 79.41 1.17 79.05 0.98 78.63 0.71 78.22 0.44 77.87 0.17 77.53-0.1 77.53-0.24L77.53-0.24Q77.48-0.49 77.48-0.93L77.48-0.93Q77.48-1.51 77.56-2.08 77.63-2.64 77.73-3.22L77.73-3.22Q77.87-4.88 77.87-6.52 77.87-8.15 77.87-9.81L77.87-9.81Q77.87-10.5 77.9-11.18 77.92-11.87 77.92-12.55L77.92-12.55Q77.92-14.16 77.8-15.8 77.68-17.43 77.68-19.04L77.68-19.04Q77.68-20.17 77.78-21.26 77.87-22.36 77.87-23.44L77.87-23.44Q77.87-24.27 77.82-25.05 77.78-25.83 77.78-26.66L77.78-26.66Q77.73-27.2 77.78-27.81 77.82-28.42 77.82-28.96L77.82-28.96Q77.82-29.59 77.65-30.15 77.48-30.71 77.48-31.2L77.48-31.2Q77.48-31.49 77.6-31.76 77.73-32.03 77.73-32.32L77.73-32.32Q77.73-32.71 77.6-33.11 77.48-33.5 77.48-33.89L77.48-33.89Q77.48-34.28 77.58-34.62 77.68-34.96 77.68-35.35L77.68-35.35Q78.36-35.69 78.9-35.69L78.9-35.69Q79.44-35.69 79.68-35.3L79.68-35.3Q79.68-34.42 79.78-33.96 79.88-33.5 79.92-33.01L79.92-33.01Q79.92-32.71 79.9-32.32 79.88-31.93 79.92-31.57 79.97-31.2 80.14-30.96 80.31-30.71 80.75-30.71L80.75-30.71Q80.85-30.47 81-30.27 81.14-30.08 81.19-29.79L81.19-29.79Q81.49-29.98 81.54-30.32 81.58-30.66 81.54-30.96L81.54-30.96Q81.78-30.86 81.97-30.88 82.17-30.91 82.37-30.81L82.37-30.81Q82.46-30.13 82.61-29.61 82.76-29.1 82.71-28.42L82.71-28.42Q83.68-27.69 84.39-26.34 85.1-25 85.73-23.93L85.73-23.93Q86.08-23.39 86.54-22.92 87-22.46 87.25-21.83L87.25-21.83Q87.64-21.58 87.88-21.19 88.13-20.8 88.32-20.41L88.32-20.41Q89.3-18.7 90.47-17.09 91.64-15.48 92.91-13.92L92.91-13.92Q92.96-14.26 92.96-14.58 92.96-14.89 92.96-15.23L92.96-15.23 92.91-19.63Q92.91-20.02 92.89-20.36 92.86-20.7 92.81-21.09L92.81-21.09Q92.72-22.36 92.77-23.58 92.81-24.8 92.77-26.07L92.77-26.07Q92.67-27.39 92.64-28.76 92.62-30.13 92.52-31.49L92.52-31.49Q92.47-32.32 92.42-33.15 92.38-33.98 92.38-34.81L92.38-34.81Q92.38-35.84 92.57-36.67L92.57-36.67Q92.67-36.77 92.79-36.84 92.91-36.91 93.11-36.91L93.11-36.91Q93.4-36.91 93.5-36.43ZM114.88-37.01L114.98-36.96Q115.22-36.08 115.47-35.23 115.71-34.38 116.05-33.54L116.05-33.54Q116.79-33.45 116.96-33.4 117.13-33.35 117.37-33.25L117.37-33.25Q117.91-31.98 118.03-30.54 118.15-29.1 118.4-27.73L118.4-27.73Q119.33-26.51 119.74-25.12 120.16-23.73 120.69-22.31L120.69-22.31Q120.84-21.83 120.89-21.7 120.94-21.58 120.94-21.48L120.94-21.48Q121.23-20.65 121.52-19.78 121.82-18.9 122.16-18.07L122.16-18.07Q122.3-17.63 122.48-17.21 122.65-16.8 122.79-16.41L122.79-16.41Q122.94-15.92 123.06-15.41 123.18-14.89 123.33-14.4L123.33-14.4Q123.67-13.43 124.06-12.45 124.45-11.47 124.84-10.5L124.84-10.5Q124.99-10.16 125.41-8.98 125.82-7.81 126.26-6.52 126.7-5.22 127.07-4.13 127.43-3.03 127.43-2.78L127.43-2.78Q127.43-2.39 127.5-1.98 127.58-1.56 127.63-1.12L127.63-1.12Q127.43-0.63 127.14-0.59 126.85-0.54 126.6-0.63L126.6-0.63Q126.36-0.54 126.14-0.44 125.92-0.34 125.72-0.24L125.72-0.24Q125.58-0.2 125.48-0.1 125.38 0 125.23 0L125.23 0Q124.65 0 124.48 0.12 124.31 0.24 123.96 0.24L123.96 0.24Q123.53 0.1 123.4 0.22 123.28 0.34 123.18 0.39L123.18 0.39Q122.99 0.49 122.74 0.49 122.5 0.49 122.26 0.54L122.26 0.54Q122.16 0.34 122.08 0.15 122.01-0.05 121.87-0.29L121.87-0.29Q121.33-1.07 121.11-1.81 120.89-2.54 120.74-2.98L120.74-2.98Q120.5-3.52 120.33-4.05 120.16-4.59 119.91-5.13L119.91-5.13Q119.62-5.03 119.37-4.91 119.13-4.79 118.98-4.59L118.98-4.59Q118.4-4.59 118.4-4.44 118.4-4.3 118.3-4.15L118.3-4.15Q118.01-4.05 117.84-3.96 117.67-3.86 117.28-3.91L117.28-3.91Q117.03-3.66 116.79-3.49 116.54-3.32 116.15-3.27L116.15-3.27Q115.76-2.88 115.35-2.61 114.93-2.34 114.39-2.49L114.39-2.49Q113.71-2.34 113.03-2.22 112.34-2.1 111.66-2.1L111.66-2.1Q110.88-2.34 110.68-2.54 110.49-2.73 110.1-2.73L110.1-2.73Q110.15-3.42 109.8-3.66L109.8-3.66Q109.8-3.81 109.83-4.13 109.85-4.44 109.95-4.54L109.95-4.54Q110.59-4.83 110.68-5.18 110.78-5.52 111.22-5.62L111.22-5.62Q111.32-5.81 111.44-5.98 111.56-6.15 111.66-6.35L111.66-6.35Q111.9-6.45 112.07-6.49 112.25-6.54 112.34-6.79L112.34-6.79Q112.59-6.79 113.08-7.1 113.56-7.42 113.71-7.62L113.71-7.62Q114.1-7.76 114.2-7.89 114.3-8.01 114.44-8.11L114.44-8.11Q114.93-8.06 115.08-8.2L115.08-8.2Q115.47-8.01 115.96-8.01L115.96-8.01Q116.15-8.01 116.3-8.03 116.45-8.06 116.64-8.06L116.64-8.06Q117.03-8.45 117.64-8.57 118.25-8.69 118.64-9.08L118.64-9.08Q118.5-9.47 118.4-10.03 118.3-10.6 118.06-10.94L118.06-10.94Q117.96-11.57 117.74-12.16 117.52-12.74 117.37-13.28L117.37-13.28Q116.84-15.33 116.1-17.29 115.37-19.24 114.88-21.29L114.88-21.29Q114.78-21.53 114.66-21.8 114.54-22.07 114.44-22.31L114.44-22.31Q114.2-21.73 114.2-21.66 114.2-21.58 114.1-21.48L114.1-21.48Q114.05-21.24 114-21.07 113.95-20.9 113.86-20.65L113.86-20.65Q113.71-20.26 113.59-19.8 113.47-19.34 113.37-18.95L113.37-18.95Q113.12-18.12 112.93-17.21 112.73-16.31 112.49-15.43L112.49-15.43Q112-13.92 111.49-12.43 110.98-10.94 110.49-9.42L110.49-9.42Q110.39-8.74 110.27-8.37 110.15-8.01 110.02-7.64 109.9-7.28 109.83-6.93 109.76-6.59 109.76-6.4L109.76-6.4Q109.07-4.83 108.61-3.22 108.14-1.61 107.46-0.1L107.46-0.1Q107.27 0 107.12 0.15 106.97 0.29 106.78 0.29L106.78 0.29Q106.39 0.29 106.36 0.1 106.34-0.1 106.14-0.1L106.14-0.1Q105.95-0.1 105.8-0.02 105.65 0.05 105.51 0.15L105.51 0.15Q105.26 0.05 104.95 0.02 104.63 0 104.48-0.2L104.48-0.2Q104.14 0.05 103.8 0.05L103.8 0.05Q103.41 0.05 103.02-0.2L103.02-0.2Q102.72-0.1 102.43-0.1L102.43-0.1Q102.28-0.1 102.09-0.15 101.89-0.2 101.8-0.29L101.8-0.29Q101.75-0.49 101.75-0.68 101.75-0.88 101.75-1.12L101.75-1.12Q101.75-1.61 101.65-1.86L101.65-1.86Q102.53-4.35 103.36-6.91 104.19-9.47 105.02-12.11L105.02-12.11Q105.46-13.33 105.87-14.5 106.29-15.67 106.68-16.89L106.68-16.89Q106.87-17.58 107.02-18.19 107.17-18.8 107.41-19.38L107.41-19.38Q107.8-20.65 108.22-21.95 108.63-23.24 108.97-24.51L108.97-24.51Q109.17-24.66 109.22-24.85 109.27-25.05 109.37-25.29L109.37-25.29 109.32-25.93Q109.66-26.42 109.78-26.78 109.9-27.15 109.95-27.54L109.95-27.54Q110.2-28.13 110.39-28.81 110.59-29.49 110.68-30.08L110.68-30.08Q110.78-30.86 110.81-31.86 110.83-32.86 111.07-33.54L111.07-33.54Q111.17-33.74 111.24-33.81 111.32-33.89 111.32-34.13L111.32-34.13Q111.42-34.23 111.54-34.35 111.66-34.47 111.71-34.62L111.71-34.62Q111.95-35.01 111.88-35.3 111.81-35.6 111.81-35.94L111.81-35.94Q112.25-36.18 112.2-36.38 112.15-36.57 112.15-36.77L112.15-36.77Q112.15-37.01 112.47-37.23 112.78-37.45 112.88-37.7L112.88-37.7Q113.17-37.65 113.47-37.62 113.76-37.6 114.05-37.65L114.05-37.65Q114.39-37.01 114.88-37.01L114.88-37.01ZM145.35-0.24L145.35-0.24Q145.06-0.24 144.86-0.12 144.67 0 144.42 0.1L144.42 0.1Q144.03 0.34 144.05 0.46 144.08 0.59 143.93 0.59L143.93 0.59Q143.49 0.59 143.08 0.44 142.66 0.29 142.22 0.29L142.22 0.29Q141.83 0.1 141.49-0.12 141.15-0.34 140.81-0.68L140.81-0.68Q140.37-0.68 140.2-0.61 140.03-0.54 139.78-0.59L139.78-0.59Q139.15-0.83 138.61-1.29 138.07-1.76 137.39-2L137.39-2Q137.19-2.25 136.95-2.37 136.71-2.49 136.46-2.69L136.46-2.69Q136.02-2.88 135.17-3.42 134.31-3.96 133.36-4.57 132.41-5.18 131.58-5.76 130.75-6.35 130.41-6.69L130.41-6.69Q130.21-6.74 129.82-7.01 129.43-7.28 129.06-7.62 128.7-7.96 128.41-8.3 128.11-8.64 128.11-8.89L128.11-8.89Q128.11-9.13 128.36-9.3 128.6-9.47 128.7-9.72L128.7-9.72Q128.75-9.81 128.72-9.99 128.7-10.16 128.75-10.25L128.75-10.25Q128.99-10.64 129.02-10.86 129.04-11.08 129.09-11.28L129.09-11.28Q129.33-11.57 129.53-11.82 129.72-12.06 129.97-12.35L129.97-12.35Q129.92-12.89 130.16-13.13 130.41-13.38 130.7-13.62L130.7-13.62Q130.94-13.62 131.29-13.57 131.63-13.53 131.87-13.43L131.87-13.43Q132.36-13.18 132.36-13.11 132.36-13.04 132.46-12.94L132.46-12.94Q132.7-12.74 132.95-12.6 133.19-12.45 133.43-12.3L133.43-12.3Q133.97-11.91 134.53-11.52 135.09-11.13 135.68-10.74L135.68-10.74Q136.36-10.35 137.32-9.72 138.27-9.08 139.05-8.79L139.05-8.79Q139.15-9.08 139.15-9.57L139.15-9.57Q139.15-9.91 139.12-10.25 139.1-10.6 139.1-10.99L139.1-10.99Q139.1-11.52 139-12.06 138.9-12.6 138.81-13.09L138.81-13.09Q138.56-15.43 138.51-17.68L138.51-17.68Q138.46-18.36 138.42-18.99 138.37-19.63 138.37-20.31L138.37-20.31Q138.37-21.24 138.39-22.17 138.42-23.1 138.42-24.07L138.42-24.07Q138.42-24.9 138.46-25.73 138.51-26.56 138.51-27.39L138.51-27.39Q138.51-28.22 138.54-28.96 138.56-29.69 138.56-30.52L138.56-30.52Q138.56-31.74 138.54-33.2 138.51-34.67 138.66-35.89L138.66-35.89Q138.76-36.38 138.95-36.62L138.95-36.62Q139.83-36.57 140.37-36.55 140.91-36.52 141.59-36.52L141.59-36.52Q141.78-36.52 141.91-36.4 142.03-36.28 142.18-36.28L142.18-36.28Q142.37-36.28 142.49-36.35 142.61-36.43 142.81-36.43L142.81-36.43Q143.15-36.43 143.44-36.13L143.44-36.13Q143.98-36.28 144.27-36.18L144.27-36.18Q144.52-35.94 144.59-35.5 144.67-35.06 144.76-34.67L144.76-34.67Q144.76-34.23 144.79-33.98 144.81-33.74 144.81-33.5L144.81-33.5Q144.81-32.96 144.76-32.42 144.71-31.88 144.71-31.35L144.71-31.35Q144.71-30.71 144.79-30.08 144.86-29.44 144.86-28.81L144.86-28.81Q144.86-28.13 144.81-27.54 144.76-26.95 144.76-26.32L144.76-26.32Q144.76-25.83 144.79-25.39 144.81-24.95 144.81-24.51L144.81-24.51Q144.81-23.49 144.79-22.46 144.76-21.44 144.76-20.41L144.76-20.41Q144.76-20.17 144.79-19.82 144.81-19.48 144.76-19.19L144.76-19.19Q144.76-18.95 144.57-18.65L144.57-18.65Q144.67-17.04 144.74-15.43 144.81-13.82 144.91-12.21L144.91-12.21Q144.91-11.82 144.96-11.35 145.01-10.89 145.06-10.45L145.06-10.45Q145.15-9.91 145.15-9.38 145.15-8.84 145.2-8.3L145.2-8.3Q145.25-7.62 145.32-6.96 145.4-6.3 145.45-5.62L145.45-5.62Q145.5-5.08 145.59-4.54 145.69-4 145.69-3.47L145.69-3.47Q145.69-2.78 145.64-1.83 145.59-0.88 145.35-0.24ZM172.45 0.15L172.1 0.1Q171.86 0.68 171.08 1.07L171.08 1.07Q170.74 0.88 170.47 0.61 170.2 0.34 169.81 0.2L169.81 0.2Q169.52-0.39 169.37-0.51 169.22-0.63 169.03-0.68L169.03-0.68Q168.74-0.93 168.54-1.27 168.34-1.61 168.1-1.86L168.1-1.86Q168-1.9 167.73-2.17 167.47-2.44 167.17-2.73 166.88-3.03 166.64-3.3 166.39-3.56 166.34-3.56L166.34-3.56Q165.9-3.86 165.56-4.2L165.56-4.2Q165.46-4.35 165.34-4.52 165.22-4.69 165.12-4.79L165.12-4.79Q164.73-4.93 164.49-5.2 164.24-5.47 164.02-5.81 163.8-6.15 163.53-6.42 163.27-6.69 162.92-6.84L162.92-6.84Q162.58-7.32 162.09-7.64 161.61-7.96 161.26-8.4L161.26-8.4Q160.97-8.74 160.63-9.06 160.29-9.38 159.9-9.67L159.9-9.67Q159.7-9.96 159.26-10.52 158.82-11.08 158.48-11.13L158.48-11.13Q158.43-10.01 158.41-8.89 158.38-7.76 158.33-6.64L158.33-6.64Q158.33-6.05 158.36-5.42 158.38-4.79 158.33-4.15L158.33-4.15Q158.29-3.91 158.21-3.64 158.14-3.37 158.14-3.08L158.14-3.08Q158.14-2.49 158.07-2.32 157.99-2.15 157.94-2L157.94-2Q157.8-1.51 157.68-0.81 157.55-0.1 157.16 0.29L157.16 0.29Q156.63 0.34 156.33 0.2L156.33 0.2Q156.24 0.29 156.14 0.39 156.04 0.49 155.84 0.49L155.84 0.49Q155.75 0.39 155.53 0.32 155.31 0.24 155.21 0.24L155.21 0.24Q154.97 0.24 154.7 0.34 154.43 0.44 154.18 0.44L154.18 0.44Q153.94 0.44 153.77 0.32 153.6 0.2 153.35 0.2L153.35 0.2Q153.21 0.2 153.01 0.34 152.82 0.49 152.62 0.49L152.62 0.49Q152.38 0.49 152.21 0.42 152.04 0.34 151.84 0.29L151.84 0.29Q151.84 0.15 151.86 0 151.89-0.15 151.84-0.29L151.84-0.29 151.65-1.51Q151.69-1.86 151.77-2.2 151.84-2.54 151.89-2.83L151.89-2.83Q151.94-3.61 151.96-4.32 151.99-5.03 151.99-5.76L151.99-5.76Q151.99-7.03 151.96-8.25 151.94-9.47 151.99-10.74L151.99-10.74Q152.04-11.18 152.11-11.65 152.18-12.11 152.18-12.55L152.18-12.55Q152.18-13.82 152.33-15.04 152.48-16.26 152.57-17.53L152.57-17.53Q152.67-18.51 152.67-19.43 152.67-20.36 152.67-21.29L152.67-21.29Q152.67-23.1 152.62-24.88 152.57-26.66 152.57-28.42L152.57-28.42Q152.57-29 152.62-30 152.67-31.01 152.52-31.54L152.52-31.54Q152.57-32.96 152.52-34.33L152.52-34.33Q152.72-34.42 152.74-34.62 152.77-34.81 152.77-35.01L152.77-35.01 152.77-35.69Q153.21-36.18 153.5-36.18L153.5-36.18Q153.74-36.18 153.99-36.13 154.23-36.08 154.48-35.94L154.48-35.94Q155.11-36.08 155.31-35.99 155.5-35.89 155.75-35.79L155.75-35.79Q156.14-35.84 156.28-36.13L156.28-36.13Q156.82-36.04 156.82-35.89 156.82-35.74 156.92-35.6L156.92-35.6Q157.41-35.55 157.58-35.67 157.75-35.79 157.99-35.84L157.99-35.84Q158.43-35.74 158.58-35.6L158.58-35.6Q158.58-35.3 158.73-34.94 158.87-34.57 158.87-33.98L158.87-33.98Q158.87-33.54 158.82-33.13 158.77-32.71 158.77-32.32L158.77-32.32Q158.77-31.64 158.82-31.01 158.87-30.37 158.87-29.69L158.87-29.69Q158.87-29.49 158.85-29.32 158.82-29.15 158.82-28.96L158.82-28.96Q158.82-27.1 158.92-25.2 159.02-23.29 159.02-21.39L159.02-21.39Q159.02-21.29 158.97-21.12 158.92-20.95 159.02-20.85L159.02-20.85Q159.85-21.73 160.43-22.73 161.02-23.73 161.7-24.71L161.7-24.71Q162.29-25.44 162.9-26.46 163.51-27.49 163.95-28.32L163.95-28.32Q164.15-28.61 164.29-28.91 164.44-29.2 164.63-29.49L164.63-29.49Q164.73-29.74 164.9-29.96 165.07-30.18 165.17-30.47L165.17-30.47Q165.41-30.86 165.61-31.23 165.81-31.59 166.05-31.98L166.05-31.98Q166.29-32.37 166.56-32.69 166.83-33.01 167.07-33.35L167.07-33.35Q167.47-33.98 167.9-34.64 168.34-35.3 168.69-35.99L168.69-35.99Q169.17-36.23 169.57-36.55 169.96-36.87 170.4-37.11L170.4-37.11Q170.88-36.47 171.1-36.23 171.32-35.99 171.71-35.94L171.71-35.94Q171.81-35.79 171.84-35.6 171.86-35.4 172.01-35.3L172.01-35.3Q172.59-35.25 172.69-35.3L172.69-35.3Q172.84-35.06 173.11-34.94 173.37-34.81 173.62-34.72L173.62-34.72Q173.62-34.57 173.62-34.4 173.62-34.23 173.67-34.13L173.67-34.13Q174.25-33.89 174.25-33.2L174.25-33.2Q173.32-31.54 172.23-30.05 171.13-28.56 170.3-26.86L170.3-26.86Q170.05-26.32 169.74-25.83 169.42-25.34 169.22-24.8L169.22-24.8Q168.88-24.46 168.69-24.1 168.49-23.73 168.2-23.39L168.2-23.39Q168-23.14 167.81-22.88 167.61-22.61 167.42-22.36L167.42-22.36Q167.03-21.83 166.71-21.26 166.39-20.7 165.95-20.17L165.95-20.17Q165.66-19.68 165.27-19.19L165.27-19.19Q164.88-18.65 164.61-17.99 164.34-17.33 163.95-16.8L163.95-16.8Q163.56-16.21 163.53-15.94 163.51-15.67 163.27-15.04L163.27-15.04Q163.61-14.5 164.05-14.06 164.49-13.62 164.98-13.23L164.98-13.23Q165.37-12.7 165.88-12.28 166.39-11.87 166.93-11.38L166.93-11.38Q167.12-11.18 167.27-11.01 167.42-10.84 167.61-10.69L167.61-10.69Q168.15-10.11 168.91-9.57 169.66-9.03 170.35-8.54L170.35-8.54Q170.88-8.06 171.69-7.35 172.49-6.64 173.37-5.83 174.25-5.03 174.94-4.32 175.62-3.61 175.62-3.42L175.62-3.42Q175.38-2.69 175.06-2.51 174.74-2.34 174.59-2L174.59-2Q174.3-1.9 174.3-1.81 174.3-1.71 174.15-1.46L174.15-1.46Q173.81-1.22 173.57-0.9 173.32-0.59 173.08-0.29L173.08-0.29Q172.89-0.2 172.71-0.12 172.54-0.05 172.45 0.15L172.45 0.15ZM198.47-34.57L198.47-34.57Q197.93-33.59 197.25-32.28 196.56-30.96 196.17-29.98L196.17-29.98Q196.03-29.64 195.91-29.32 195.78-29 195.64-28.66L195.64-28.66Q195.39-27.93 195.03-27.27 194.66-26.61 194.37-25.88L194.37-25.88Q193.93-24.9 193.46-23.9 193-22.9 192.56-21.83L192.56-21.83Q192.07-20.85 191.8-20.14 191.54-19.43 191.24-18.7 190.95-17.97 190.73-17.26 190.51-16.55 190.36-15.97L190.36-15.97Q189.92-15.19 189.63-14.79L189.63-14.79Q189.53-13.92 189.44-13.04 189.34-12.16 189.34-11.23L189.34-11.23Q189.34-10.79 189.41-10.38 189.48-9.96 189.53-9.52L189.53-9.52Q189.58-8.89 189.56-8.28 189.53-7.67 189.58-7.03L189.58-7.03Q189.63-5.81 189.7-4.61 189.78-3.42 189.83-2.15L189.83-2.15Q189.88-1.27 189.75-0.66 189.63-0.05 189.68 0.59L189.68 0.59Q189.53 0.68 189.36 0.73 189.19 0.78 189.05 0.88L189.05 0.88Q188.51 0.88 188.34 0.85 188.17 0.83 188.02 0.93L188.02 0.93Q187.58 0.63 187.53 0.66 187.48 0.68 187.43 0.68L187.43 0.68Q186.85 0.49 186.8 0.39 186.75 0.29 186.6 0.2L186.6 0.2Q186.07 0.2 185.72 0.34L185.72 0.34Q185.58 0.24 185.48 0.15 185.38 0.05 185.24-0.05L185.24-0.05Q184.8-0.1 184.5-0.17 184.21-0.24 184.02-0.34L184.02-0.34Q183.87-0.73 183.7-1.03 183.53-1.32 183.53-1.81L183.53-1.81Q183.53-2.2 183.63-2.54 183.72-2.88 183.77-3.27L183.77-3.27Q183.77-3.52 183.75-3.71 183.72-3.91 183.72-4.15L183.72-4.15Q183.72-4.39 183.82-4.79L183.82-4.79Q183.67-5.91 183.7-7.15 183.72-8.4 183.72-9.52L183.72-9.52Q183.72-10.64 183.53-11.62L183.53-11.62Q183.58-12.26 183.53-12.52 183.48-12.79 183.48-13.09L183.48-13.09Q183.48-13.33 183.53-13.6 183.58-13.87 183.58-14.11L183.58-14.11Q183.58-14.16 183.5-14.62 183.43-15.09 183.33-15.6 183.23-16.11 183.14-16.58 183.04-17.04 183.04-17.14L183.04-17.14Q182.55-18.02 182.31-18.8 182.06-19.58 181.77-20.12L181.77-20.12Q181.57-20.51 181.38-20.9 181.18-21.29 181.04-21.73L181.04-21.73Q180.94-21.97 180.87-22.27 180.79-22.56 180.7-22.8L180.7-22.8Q180.5-23.19 180.33-23.66 180.16-24.12 179.91-24.41L179.91-24.41Q179.72-24.85 179.55-25.22 179.38-25.59 179.38-25.93L179.38-25.93Q179.23-26.51 178.91-26.98 178.6-27.44 178.35-27.93L178.35-27.93Q178.21-28.22 178.13-28.47 178.06-28.71 177.96-28.96L177.96-28.96Q177.86-29.15 177.69-29.44 177.52-29.74 177.33-29.88L177.33-29.88Q177.23-30.32 176.98-30.66 176.74-31.01 176.64-31.45L176.64-31.45Q176.4-31.79 176.11-32.13L176.11-32.13Q175.91-32.86 175.57-33.47 175.23-34.08 174.93-34.77L174.93-34.77Q175.13-35.79 176.06-36.04L176.06-36.04Q176.55-36.62 176.64-36.67 176.74-36.72 177.08-36.72L177.08-36.72Q177.38-36.96 177.67-37.13 177.96-37.3 178.35-37.21L178.35-37.21Q178.4-37.4 178.62-37.55 178.84-37.7 179.04-37.7L179.04-37.7Q179.33-37.7 179.55-37.4 179.77-37.11 180.01-36.96L180.01-36.96Q180.4-36.28 180.82-35.64 181.23-35.01 181.53-34.33L181.53-34.33Q181.87-33.64 182.14-32.96 182.4-32.28 182.94-31.64L182.94-31.64Q183.19-30.66 183.7-29.81 184.21-28.96 184.55-27.98L184.55-27.98Q184.8-27.39 185.11-26.83 185.43-26.27 185.68-25.63L185.68-25.63Q185.82-25.34 185.92-25.05 186.02-24.76 186.12-24.46L186.12-24.46Q186.21-24.22 186.31-23.83 186.41-23.44 186.55-23.19L186.55-23.19Q186.9-23.54 187.14-24.07L187.14-24.07Q187.48-24.76 187.85-25.37 188.21-25.98 188.51-26.66L188.51-26.66Q188.9-27.29 189.07-27.98 189.24-28.66 189.48-29.35L189.48-29.35Q189.58-29.59 189.7-29.83 189.83-30.08 189.92-30.37L189.92-30.37Q190.07-30.66 190.17-30.96 190.27-31.25 190.36-31.54L190.36-31.54Q190.71-32.47 191.12-33.37 191.54-34.28 191.97-35.21L191.97-35.21Q192.02-35.35 192.19-35.64 192.37-35.94 192.59-36.25 192.8-36.57 193-36.82 193.2-37.06 193.34-37.16L193.34-37.16Q193.44-37.26 193.66-37.28 193.88-37.3 194.03-37.35L194.03-37.35Q194.46-37.35 194.66-37.11L194.66-37.11Q195.25-36.87 195.54-36.77 195.83-36.67 195.98-36.33L195.98-36.33Q196.71-35.84 197.08-35.77 197.44-35.69 197.64-35.35L197.64-35.35Q198.18-35.01 198.27-34.86 198.37-34.72 198.47-34.57ZM202.47-6.74L202.47-6.74Q202.96-6.79 203.18-6.42 203.4-6.05 203.69-5.96L203.69-5.96Q204.13-5.37 204.3-5.2 204.47-5.03 204.42-4.64L204.42-4.64Q204.67-4.54 204.86-4.42 205.06-4.3 205.3-4.1L205.3-4.1Q205.45-3.81 205.45-3.47L205.45-3.47Q205.45-3.32 205.45-3.15 205.45-2.98 205.4-2.83L205.4-2.83Q205.16-2.59 204.91-2.37 204.67-2.15 204.47-1.86L204.47-1.86Q203.89-1.46 203.45-1.05 203.01-0.63 202.32-0.24L202.32-0.24Q202.03-0.05 201.79 0.15 201.54 0.34 201.15 0.49L201.15 0.49Q201.15 0.29 200.98 0.22 200.81 0.15 200.71 0.05L200.71 0.05Q200.71-0.54 200.03-0.78L200.03-0.78Q199.88-1.22 199.56-1.54 199.25-1.86 199.05-2.25L199.05-2.25Q199.05-2.54 198.93-2.69 198.81-2.83 198.71-2.98L198.71-2.98Q198.22-2.98 198.1-3.32 197.98-3.66 197.98-4.05L197.98-4.05Q198.08-4.44 198.22-4.59 198.37-4.74 198.47-4.98L198.47-4.98Q199-5.47 199.74-6.18 200.47-6.88 201.01-7.18L201.01-7.18Q201.1-7.28 201.37-7.3 201.64-7.32 201.79-7.32L201.79-7.32 202.32-7.32Q202.42-7.08 202.49-7.03 202.57-6.98 202.47-6.74ZM216.43-13.33L216.43-13.33Q216.53-13.09 217.17-12.28 217.8-11.47 218.61-10.52 219.41-9.57 220.19-8.69 220.97-7.81 221.27-7.42L221.27-7.42Q222.19-6.05 223.17-4.74 224.15-3.42 225.03-2L225.03-2Q225.27-1.76 225.42-1.39 225.56-1.03 225.56-0.63L225.56-0.63Q225.56-0.2 225.34-0.17 225.12-0.15 224.88-0.05L224.88-0.05Q224.39 0.29 224 0.34 223.61 0.39 223.37 0.39L223.37 0.39Q222.83 0.39 222.19 0.37 221.56 0.34 221.12 0.44L221.12 0.44Q220.97 0.49 220.78 0.61 220.58 0.73 220.49 0.73L220.49 0.73Q220.09 0.73 219.92 0.61 219.75 0.49 219.46 0.39L219.46 0.39Q219.07-0.05 218.75-0.54 218.43-1.03 218.09-1.51L218.09-1.51Q217.8-1.86 217.46-2.12 217.12-2.39 216.82-2.78L216.82-2.78Q216.04-3.91 215.24-4.93 214.43-5.96 213.6-6.98L213.6-6.98Q213.21-7.52 212.75-8.01 212.28-8.5 211.89-8.98L211.89-8.98Q211.5-9.52 211.16-10.11 210.82-10.69 210.43-11.23L210.43-11.23Q210.13-11.72 209.6-12.43 209.06-13.13 208.47-13.87 207.89-14.6 207.28-15.26 206.67-15.92 206.23-16.26L206.23-16.26Q206.23-16.6 206.03-16.75 205.84-16.89 205.59-17.09L205.59-17.09Q205.5-17.33 205.35-17.55 205.2-17.77 205.2-18.07L205.2-18.07Q205.2-18.26 205.25-18.41 205.3-18.55 205.35-18.7L205.35-18.7Q205.45-18.9 205.47-19.07 205.5-19.24 205.59-19.43L205.59-19.43Q205.84-20.07 206.3-20.56 206.76-21.04 207.01-21.68L207.01-21.68Q207.06-21.88 207.06-22.05 207.06-22.22 207.16-22.41L207.16-22.41Q207.3-22.71 207.59-23 207.89-23.29 208.13-23.63L208.13-23.63Q208.38-24.07 208.62-24.51 208.86-24.95 209.11-25.39L209.11-25.39Q209.79-26.51 210.62-27.56 211.45-28.61 212.18-29.64L212.18-29.64Q212.87-30.62 213.45-31.57 214.04-32.52 214.72-33.5L214.72-33.5Q215.07-33.98 215.5-34.59 215.94-35.21 216.41-35.79 216.87-36.38 217.36-36.89 217.85-37.4 218.34-37.65L218.34-37.65Q219.17-37.74 219.41-37.38 219.66-37.01 220.09-37.01L220.09-37.01Q220.78-36.87 221.02-36.57 221.27-36.28 221.51-36.04L221.51-36.04Q222.15-36.04 222.58-35.79 223.02-35.55 223.46-35.06L223.46-35.06Q223.27-34.52 222.95-34.08 222.63-33.64 222.39-33.15L222.39-33.15Q222-33.01 221.83-32.67 221.66-32.32 221.32-32.08L221.32-32.08Q220.78-31.25 220.24-30.44 219.7-29.64 219.17-28.91L219.17-28.91Q218.92-28.61 218.61-28.44 218.29-28.27 218.09-27.93L218.09-27.93Q218-27.78 217.95-27.61 217.9-27.44 217.8-27.29L217.8-27.29Q217.21-26.37 216.48-25.49 215.75-24.61 215.21-23.63L215.21-23.63Q214.97-23.29 214.82-22.92 214.67-22.56 214.48-22.22L214.48-22.22Q214.28-21.92 213.92-21.39 213.55-20.85 213.19-20.29 212.82-19.73 212.55-19.21 212.28-18.7 212.28-18.36L212.28-18.36Q212.33-18.12 212.92-17.38 213.5-16.65 214.21-15.82 214.92-14.99 215.58-14.26 216.24-13.53 216.43-13.33ZM243.19-37.26L243.19-37.26Q243.24-37.11 243.65-36.91 244.07-36.72 244.16-36.72L244.16-36.72Q244.85-36.82 244.97-36.69 245.09-36.57 245.24-36.43L245.24-36.43Q245.43-36.52 245.56-36.65 245.68-36.77 245.92-36.77L245.92-36.77Q246.17-36.62 246.24-36.35 246.31-36.08 246.46-35.84L246.46-35.84Q246.41-35.21 246.46-35.03 246.51-34.86 246.51-34.67L246.51-34.67Q246.51-33.94 246.07-33.08 245.63-32.23 245.43-31.49L245.43-31.49Q245.19-31.25 245.12-30.96 245.04-30.66 244.85-30.42L244.85-30.42Q244.7-29.93 244.41-29.57 244.12-29.2 244.02-28.71L244.02-28.71Q243.97-28.66 243.8-28.37 243.63-28.08 243.43-27.73 243.24-27.39 243.07-27.05 242.89-26.71 242.85-26.61L242.85-26.61Q242.7-26.37 242.63-26.15 242.55-25.93 242.41-25.73L242.41-25.73Q242.31-25.44 242.09-25.02 241.87-24.61 241.6-24.17 241.33-23.73 241.14-23.32 240.94-22.9 240.94-22.71L240.94-22.71Q240.6-22.31 240.55-21.83L240.55-21.83Q239.23-19.34 238.21-16.72 237.18-14.11 236.01-11.57L236.01-11.57Q235.91-11.13 235.89-11.04 235.86-10.94 235.77-10.89L235.77-10.89Q235.62-10.55 235.42-10.23 235.23-9.91 235.13-9.57L235.13-9.57Q234.94-9.03 234.81-8.57 234.69-8.11 234.35-7.62L234.35-7.62Q234.3-7.32 234.15-7.06 234.01-6.79 234.06-6.49L234.06-6.49Q234.2-6.35 234.52-6.32 234.84-6.3 235.03-6.3L235.03-6.3Q235.33-6.3 235.62-6.32 235.91-6.35 236.21-6.35L236.21-6.35Q236.5-6.35 236.74-6.32 236.99-6.3 237.23-6.3L237.23-6.3 238.45-6.3Q238.65-6.3 238.82-6.27 238.99-6.25 239.14-6.25L239.14-6.25Q239.67-6.25 240.28-6.3 240.89-6.35 241.48-6.35L241.48-6.35Q241.82-6.35 242.21-6.37 242.6-6.4 242.99-6.3L242.99-6.3Q243.14-6.25 243.21-6.15 243.29-6.05 243.53-6.15L243.53-6.15Q243.97-5.71 244.07-5.62 244.16-5.52 244.26-5.42L244.26-5.42Q244.26-5.22 244.29-5.1 244.31-4.98 244.31-4.83L244.31-4.83Q244.31-4.3 244.41-4.1L244.41-4.1Q244.12-3.66 244.21-3.47L244.21-3.47 243.97-2.93Q243.97-2.69 243.87-2.42 243.77-2.15 243.87-1.9L243.87-1.9Q243.63-1.51 243.55-1.05 243.48-0.59 243.24-0.2L243.24-0.2Q242.85-0.05 242.46-0.07 242.06-0.1 241.67 0L241.67 0Q241.43-0.1 240.99-0.1L240.99-0.1Q240.6-0.1 240.23-0.05 239.87 0 239.48 0L239.48 0Q239.33 0 239.18-0.02 239.04-0.05 238.89-0.05L238.89-0.05Q238.35 0.05 238.33 0 238.31-0.05 238.21-0.05L238.21-0.05Q237.67-0.05 237.13-0.02 236.6 0 236.06 0L236.06 0Q235.86 0 235.72 0.05 235.57 0.1 235.42 0.1L235.42 0.1Q235.28 0.1 235.13 0.05 234.98 0 234.84 0L234.84 0Q234.59 0 234.3 0.05 234.01 0.1 233.72 0.1L233.72 0.1Q233.57 0.1 233.42 0.07 233.28 0.05 233.13 0.05L233.13 0.05Q232.89 0.05 232.64 0.15 232.4 0.24 232.1 0.15L232.1 0.15 231.42 0.24Q230.64 0.24 229.88 0.34 229.13 0.44 228.34 0.44L228.34 0.44Q227.9 0.44 227.76 0.39L227.76 0.39Q227.51 0.2 227.17 0.15 226.83 0.1 226.54-0.05L226.54-0.05Q226.49-0.44 226.2-0.63 225.9-0.83 225.66-1.07L225.66-1.07Q225.71-1.66 225.56-1.81L225.56-1.81Q225.61-2.59 225.27-2.83L225.27-2.83Q225.32-3.27 225.61-3.66 225.9-4.05 225.95-4.49L225.95-4.49Q226.34-4.88 226.44-5.08 226.54-5.27 226.54-5.52L226.54-5.52Q226.83-5.86 227.1-6.37 227.37-6.88 227.61-7.47 227.86-8.06 228.05-8.62 228.25-9.18 228.39-9.62L228.39-9.62Q228.78-10.16 228.98-10.74 229.17-11.33 229.42-11.91L229.42-11.91Q229.81-12.6 229.93-12.92 230.05-13.23 230.3-13.48L230.3-13.48Q230.35-13.67 230.57-14.23 230.79-14.79 231.03-15.43 231.27-16.06 231.54-16.58 231.81-17.09 231.91-17.24L231.91-17.24Q231.96-17.48 232.1-17.72 232.25-17.97 232.25-18.21L232.25-18.21Q232.74-18.85 233.03-19.78 233.32-20.7 233.67-21.39L233.67-21.39Q234.01-22.12 234.4-22.83 234.79-23.54 235.18-24.27L235.18-24.27Q236.69-27.2 238.21-30.18L238.21-30.18Q238.11-30.42 237.79-30.42 237.48-30.42 237.28-30.57L237.28-30.57Q236.89-30.47 236.55-30.52 236.21-30.57 235.81-30.57L235.81-30.57Q234.89-30.76 234.28-30.74 233.67-30.71 233.08-30.71L233.08-30.71Q232.79-30.71 232.47-30.76 232.15-30.81 231.86-30.81L231.86-30.81Q231.13-30.81 230.37-30.71 229.61-30.62 228.93-30.47L228.93-30.47Q228.49-30.57 228.03-30.57 227.56-30.57 227.17-30.66L227.17-30.66Q226.98-31.4 227.07-31.49L227.07-31.49Q226.98-31.64 226.85-31.76 226.73-31.88 226.64-32.03L226.64-32.03Q226.68-32.47 226.56-32.59 226.44-32.71 226.34-32.96L226.34-32.96Q226.34-33.3 226.32-33.62 226.29-33.94 226.39-34.28L226.39-34.28Q226.29-34.47 226.15-34.59 226-34.72 225.9-34.86L225.9-34.86Q225.95-35.11 225.93-35.28 225.9-35.45 225.95-35.64L225.95-35.64Q226.24-35.89 226.59-36.01 226.93-36.13 227.12-36.43L227.12-36.43Q227.76-36.62 228.42-36.67 229.08-36.72 229.71-36.72L229.71-36.72Q230.39-36.72 231.01-36.69 231.62-36.67 232.2-36.62L232.2-36.62Q232.64-36.62 233.01-36.5 233.37-36.38 233.76-36.33L233.76-36.33Q234.01-36.28 234.25-36.3 234.5-36.33 234.74-36.33L234.74-36.33Q235.57-36.33 236.43-36.3 237.28-36.28 238.11-36.28L238.11-36.28Q238.79-36.28 239.38-36.28 239.97-36.28 240.55-36.38L240.55-36.38Q240.75-36.57 240.84-36.77 240.94-36.96 241.04-37.16L241.04-37.16Q241.48-37.16 241.63-37.13 241.77-37.11 241.87-37.11L241.87-37.11 242.46-36.87Q242.65-36.87 242.89-36.94 243.14-37.01 243.19-37.26Z" opacity="1" transform="matrix(1,0,0,1,0,0)" fill="black" class="wordmark-text-0" id="SvgjsPath1827"></path></svg></g></svg></g></svg></g></svg></g><g transform="matrix(1,0,0,1,410.73794341709436,0)"><svg viewBox="0 0 89.08814029689047 89.08655603460086" height="89.08655603460086" width="89.08814029689047"><g><svg xmlns="http://www.w3.org/2000/svg" xmlns:xlink="http://www.w3.org/1999/xlink" version="1.1" x="0" y="0" viewBox="10.22832525372998 11.525152021935746 66.9510966778763 66.94990608059408" enable-background="new 0 0 90 90" xml:space="preserve" height="89.08655603460086" width="89.08814029689047" class="icon-icon-0" data-fill-palette-color="accent" id="SvgjsSvg1826"><path d="M28.453 36.307c0.364-0.197 0.955-0.603 1.652-1.043 3.134-2.079 9.266-6.111 9.375-6.29 0.869-0.555 1.735-1.094 2.52-1.623 2.748-1.876 5.175-3.42 7.44-4.73 0.869-0.536 1.764-0.982 2.579-1.43 3.695-1.814 7.188-2.943 11.242-3.305 3.219 2.274 5.962 5.13 8.179 8.425-9.431 3.432-18.717 8.896-37.979 20.845C32.373 44.645 28.738 36.795 28.453 36.307" fill="black"></path><g fill="black"><path d="M37.382 56.766c-0.391-0.988-2.127-5.285-2.797-6.928 19.754-12.274 28.903-17.662 38.361-21.023 1.489 2.638 2.599 5.512 3.331 8.58C70.823 44.823 56.323 52.106 37.382 56.766" fill="black"></path><path d="M39.48 25.586c-7.386-4.383-15.783-3.192-22.246-0.979 2.379-3.133 5.372-5.866 8.762-7.952 6.097-1.26 14.579-1.43 21.261 3.92C44.856 21.969 42.28 23.691 39.48 25.586" fill="black"></path><path d="M68.975 60.861c-0.951 0.728-2.018 1.324-3.079 1.942-2.208 1.202-4.478 2.242-6.964 3.158-1.034 0.37-2.105 0.778-3.168 1.091-3.66 1.206-12.142 3.378-12.785 3.563-0.138-0.323-3.327-8.204-4.555-11.219 14.77-3.62 30.799-10.016 38.527-18.31 0.447 3.831 0.227 7.617-0.564 11.216C74.799 55.831 72.189 58.629 68.975 60.861" fill="black"></path><path d="M42.502 73.682l3.022-0.82c2.853-0.708 5.96-1.519 9.094-2.459-1.513 3.254-3.913 5.799-6.521 7.792-3.463 0.44-6.854 0.357-10.068-0.217C40.374 76.131 42.502 73.682 42.502 73.682" fill="black"></path><path d="M11.698 35.293c0.726-2.271 1.616-4.469 2.742-6.562 5.847-2.604 14.692-5.129 22.38-1.362l-10.662 7.062c-2.212-0.214-4.228-0.274-6.097-0.214-1.009 0-1.933 0.067-2.88 0.131C15.078 34.556 13.314 34.903 11.698 35.293" fill="black"></path><path d="M17.146 37.261c0.31 17.438 8.563 30.973 15.676 39.418-11.14-3.888-19.891-13.447-22.078-25.853-0.762-4.223-0.649-8.392 0.138-12.359C12.617 37.95 14.691 37.48 17.146 37.261" fill="black"></path><path d="M49.945 19.12c-4.984-4.42-10.884-5.9-16.282-6 1.368-0.446 2.771-0.861 4.22-1.087 7.7-1.362 15.282 0.08 21.717 3.553C56.191 16.225 53.135 17.459 49.945 19.12" fill="black"></path><path d="M25.8 37.261c2.491 5.285 3.996 8.498 5.257 11.419 0.364 0.95 0.705 1.764 1.096 2.695 0.585 1.477 2.405 6.028 2.405 6.028l1.089 2.692 4.678 11.63c-1.292 1.751-2.883 3.133-4.394 4.22-7.001-7.983-15.674-21.349-15.928-38.856C21.748 37.031 23.697 37.089 25.8 37.261" fill="black"></path><path d="M58.141 69.241c2.354-0.82 4.645-1.751 6.889-2.813-0.838 2.577-2.044 4.836-3.247 6.736-2.461 1.634-5.228 2.871-8.171 3.815C55.514 74.858 57.162 72.266 58.141 69.241" fill="black"></path><path d="M68.477 64.556c1.561-0.961 3.074-2.022 4.41-3.199-1.532 2.812-3.459 5.333-5.757 7.568C67.714 67.534 68.16 66.105 68.477 64.556" fill="black"></path></g></svg></g></svg></g></svg></g><defs><mask></mask></defs></svg><rect width="395.5199999999999" height="70.49554993406092" fill="black" stroke="none" visibility="hidden"></rect></g></mask></svg><rect width="395.5199999999999" height="70.49554993406092" fill="black" stroke="none" visibility="hidden"></rect></g></mask><linearGradient x1="0" x2="1" y1="0.5" y2="0.5" id="d8a81dca-1bdf-4020-8cdb-6a85126a5c34"><stop stop-color="#ffa62e" offset="0"></stop><stop stop-color="#f71b3d" offset="1"></stop></linearGradient><rect width="395.5199999999999" height="70.49554993406092" fill="url(#d8a81dca-1bdf-4020-8cdb-6a85126a5c34)" mask="url(#28913a15-4e42-46a9-bb4f-134a74051044)" data-fill-palette-color="accent"></rect></svg><rect width="395.5199999999999" height="70.49554993406092" fill="none" stroke="none" visibility="hidden"></rect></g></svg></g></svg>